<svg width="15" height="16" viewBox="0 0 15 16" fill="none" xmlns="http://www.w3.org/2000/svg">
<g clip-path="url(#clip0_5_206)">
<path fill-rule="evenodd" clip-rule="evenodd" d="M2.7609 3.12198C3.21679 3.49237 3.38782 3.46411 4.24392 3.40699L12.3147 2.92237C12.4858 2.92237 12.3435 2.75161 12.2864 2.72324L10.9461 1.75424C10.6892 1.55484 10.347 1.32649 9.69124 1.38362L1.87631 1.95361C1.59129 1.98187 1.53437 2.12438 1.64787 2.23859L2.7609 3.12198ZM3.24545 5.00287V13.4947C3.24545 13.9511 3.47352 14.1218 3.98682 14.0936L12.8566 13.5804C13.3702 13.5521 13.4274 13.2382 13.4274 12.8675V4.43262C13.4274 4.06248 13.285 3.86288 12.9706 3.89137L3.70161 4.43262C3.35953 4.46136 3.24542 4.63247 3.24542 5.00287H3.24545ZM12.0017 5.45839C12.0585 5.71511 12.0017 5.9716 11.7445 6.00047L11.3171 6.08562V12.3548C10.9461 12.5543 10.6039 12.6683 10.3188 12.6683C9.86226 12.6683 9.74793 12.5257 9.406 12.0985L6.61055 7.70999V11.956L7.49514 12.1556C7.49514 12.1556 7.49514 12.6683 6.78146 12.6683L4.814 12.7824C4.75685 12.6683 4.814 12.3836 5.01357 12.3265L5.52699 12.1842V6.5702L4.81414 6.51308C4.75696 6.25636 4.89935 5.88619 5.29893 5.85747L7.40956 5.7152L10.3188 10.1608V6.2281L9.57702 6.14297C9.5201 5.82913 9.74793 5.60124 10.0332 5.57298L12.0017 5.45839ZM1.22015 1.18425L9.34893 0.585617C10.3472 0.500004 10.604 0.557358 11.2314 1.01311L13.8262 2.83688C14.2544 3.15049 14.3971 3.23588 14.3971 3.57775V13.5804C14.3971 14.2072 14.1687 14.578 13.3703 14.6347L3.93033 15.2048C3.33098 15.2333 3.04574 15.1479 2.73186 14.7487L0.821007 12.2695C0.478641 11.8131 0.33625 11.4717 0.33625 11.0723V2.18127C0.33625 1.66863 0.564687 1.24099 1.22015 1.18425V1.18425Z" fill="black"/>
</g>
<defs>
<clipPath id="clip0_5_206">
<rect width="14.7333" height="14.7333" fill="white" transform="translate(0 0.5)"/>
</clipPath>
</defs>
</svg>
