<svg width="172" height="172" viewBox="0 0 172 172" fill="none" xmlns="http://www.w3.org/2000/svg">
<path opacity="0.4" d="M85.5 20.5C121.675 20.5 151 49.8253 151 86C151 122.175 121.675 151.5 85.5 151.5C49.3253 151.5 20 122.175 20 86C20 49.8253 49.3253 20.5 85.5 20.5ZM85.5 138.4C114.44 138.4 137.9 114.94 137.9 86C137.9 57.0603 114.44 33.6 85.5 33.6C56.5603 33.6 33.1 57.0603 33.1 86C33.1 114.94 56.5603 138.4 85.5 138.4Z" fill="#FF8289"/>
<g opacity="0.4" filter="url(#filter0_d_14_321)">
<path d="M86 7C129.63 6.99999 165 42.3695 165 86C165 129.63 129.63 165 86 165C42.3695 165 7 129.63 7 86C6.99999 42.3695 42.3695 7 86 7ZM86 149.2C120.904 149.2 149.2 120.904 149.2 86C149.2 51.0956 120.904 22.8 86 22.8C51.0956 22.8 22.8 51.0956 22.8 86C22.8 120.904 51.0956 149.2 86 149.2Z" fill="#FFA5AA"/>
</g>
<path d="M73.4107 87.9835C71.5628 87.9763 69.9727 87.5215 68.6405 86.619C67.3154 85.7165 66.2948 84.4094 65.5785 82.6975C64.8694 80.9857 64.5185 78.9264 64.5256 76.5198C64.5256 74.1204 64.8802 72.0755 65.5893 70.3851C66.3055 68.6948 67.3262 67.4091 68.6512 66.5281C69.9835 65.6399 71.57 65.1959 73.4107 65.1959C75.2515 65.1959 76.8344 65.6399 78.1595 66.5281C79.4917 67.4163 80.516 68.7055 81.2322 70.3959C81.9485 72.0791 82.303 74.1204 82.2959 76.5198C82.2959 78.9336 81.9377 80.9964 81.2215 82.7083C80.5124 84.4201 79.4953 85.7273 78.1702 86.6298C76.8452 87.5322 75.2587 87.9835 73.4107 87.9835ZM73.4107 84.1264C74.6714 84.1264 75.6777 83.4926 76.4298 82.2248C77.1818 80.957 77.5543 79.0554 77.5471 76.5198C77.5471 74.851 77.3752 73.4614 77.0314 72.3512C76.6948 71.241 76.2149 70.4066 75.5917 69.8479C74.9758 69.2893 74.2488 69.0099 73.4107 69.0099C72.1573 69.0099 71.1545 69.6366 70.4025 70.8901C69.6504 72.1435 69.2708 74.0201 69.2636 76.5198C69.2636 78.2102 69.432 79.6212 69.7686 80.7529C70.1124 81.8774 70.5959 82.7226 71.219 83.2884C71.8421 83.8471 72.5727 84.1264 73.4107 84.1264ZM97.6568 83.3744V82.214C97.6568 81.3331 97.843 80.5237 98.2155 79.786C98.5951 79.041 99.143 78.4466 99.8593 78.0025C100.583 77.5512 101.464 77.3256 102.502 77.3256C103.555 77.3256 104.44 77.5477 105.156 77.9917C105.879 78.4358 106.424 79.0303 106.789 79.7752C107.162 80.5129 107.348 81.3259 107.348 82.214V83.3744C107.348 84.2554 107.162 85.0683 106.789 85.8132C106.417 86.551 105.869 87.1419 105.145 87.586C104.422 88.0372 103.541 88.2628 102.502 88.2628C101.449 88.2628 100.565 88.0372 99.8486 87.586C99.1323 87.1419 98.5879 86.551 98.2155 85.8132C97.843 85.0683 97.6568 84.2554 97.6568 83.3744ZM100.783 82.214V83.3744C100.783 83.8829 100.905 84.3628 101.149 84.814C101.399 85.2653 101.85 85.4909 102.502 85.4909C103.154 85.4909 103.598 85.2689 103.835 84.8248C104.078 84.3807 104.2 83.8972 104.2 83.3744V82.214C104.2 81.6912 104.085 81.2041 103.856 80.7529C103.627 80.3017 103.176 80.076 102.502 80.076C101.858 80.076 101.41 80.3017 101.159 80.7529C100.909 81.2041 100.783 81.6912 100.783 82.214ZM86.3651 70.7826V69.6223C86.3651 68.7342 86.5549 67.9212 86.9345 67.1835C87.3141 66.4386 87.8621 65.8441 88.5783 65.4C89.3017 64.9559 90.1756 64.7339 91.1998 64.7339C92.2598 64.7339 93.148 64.9559 93.8643 65.4C94.5805 65.8441 95.1249 66.4386 95.4973 67.1835C95.8698 67.9212 96.056 68.7342 96.056 69.6223V70.7826C96.056 71.6708 95.8662 72.4837 95.4866 73.2215C95.1141 73.9592 94.5662 74.5501 93.8428 74.9942C93.1265 75.4311 92.2455 75.6496 91.1998 75.6496C90.1541 75.6496 89.2695 75.4275 88.5461 74.9835C87.8298 74.5322 87.2855 73.9413 86.913 73.2107C86.5477 72.473 86.3651 71.6636 86.3651 70.7826ZM89.513 69.6223V70.7826C89.513 71.3055 89.6348 71.789 89.8783 72.2331C90.129 72.6771 90.5695 72.8992 91.1998 72.8992C91.8587 72.8992 92.3064 72.6771 92.5428 72.2331C92.7863 71.789 92.9081 71.3055 92.9081 70.7826V69.6223C92.9081 69.0994 92.7935 68.6124 92.5643 68.1612C92.3351 67.7099 91.8802 67.4843 91.1998 67.4843C90.5623 67.4843 90.1218 67.7135 89.8783 68.1719C89.6348 68.6303 89.513 69.1138 89.513 69.6223ZM87.7833 87.5L102.911 65.4967H105.725L90.5981 87.5H87.7833Z" fill="black"/>
<path d="M60.3864 103.091C59.9924 103.091 59.6468 102.997 59.3494 102.81C59.054 102.622 58.8229 102.36 58.6562 102.023C58.4915 101.686 58.4091 101.292 58.4091 100.841C58.4091 100.386 58.4915 99.9896 58.6562 99.6506C58.8229 99.3116 59.054 99.0483 59.3494 98.8608C59.6468 98.6733 59.9924 98.5795 60.3864 98.5795C60.7803 98.5795 61.125 98.6733 61.4205 98.8608C61.7178 99.0483 61.9489 99.3116 62.1136 99.6506C62.2803 99.9896 62.3636 100.386 62.3636 100.841C62.3636 101.292 62.2803 101.686 62.1136 102.023C61.9489 102.36 61.7178 102.622 61.4205 102.81C61.125 102.997 60.7803 103.091 60.3864 103.091ZM60.3864 102.489C60.6856 102.489 60.9318 102.412 61.125 102.259C61.3182 102.105 61.4612 101.903 61.554 101.653C61.6468 101.403 61.6932 101.133 61.6932 100.841C61.6932 100.549 61.6468 100.277 61.554 100.026C61.4612 99.7737 61.3182 99.5701 61.125 99.4148C60.9318 99.2595 60.6856 99.1818 60.3864 99.1818C60.0871 99.1818 59.8409 99.2595 59.6477 99.4148C59.4545 99.5701 59.3116 99.7737 59.2188 100.026C59.1259 100.277 59.0795 100.549 59.0795 100.841C59.0795 101.133 59.1259 101.403 59.2188 101.653C59.3116 101.903 59.4545 102.105 59.6477 102.259C59.8409 102.412 60.0871 102.489 60.3864 102.489ZM65.3303 98.6364V99.2045H62.978V98.6364H65.3303ZM63.6825 103V98.0341C63.6825 97.7841 63.7412 97.5758 63.8587 97.4091C63.9761 97.2424 64.1286 97.1174 64.3161 97.0341C64.5036 96.9508 64.7015 96.9091 64.9098 96.9091C65.0746 96.9091 65.209 96.9223 65.3132 96.9489C65.4174 96.9754 65.495 97 65.5462 97.0227L65.353 97.6023C65.3189 97.5909 65.2715 97.5767 65.2109 97.5597C65.1522 97.5426 65.0746 97.5341 64.978 97.5341C64.7564 97.5341 64.5964 97.59 64.4979 97.7017C64.4013 97.8134 64.353 97.9773 64.353 98.1932V103H63.6825ZM70.3118 98.6364V99.5455H67.6839V98.6364H70.3118ZM68.2805 97.5909H69.4908V101.659C69.4908 101.771 69.5078 101.858 69.5419 101.92C69.576 101.981 69.6233 102.024 69.6839 102.048C69.7464 102.073 69.8184 102.085 69.8999 102.085C69.9567 102.085 70.0135 102.08 70.0703 102.071C70.1271 102.06 70.1707 102.051 70.201 102.045L70.3913 102.946C70.3307 102.965 70.2455 102.987 70.1357 103.011C70.0258 103.038 69.8923 103.054 69.7351 103.06C69.4434 103.071 69.1877 103.032 68.968 102.943C68.7502 102.854 68.5807 102.716 68.4595 102.528C68.3383 102.341 68.2786 102.104 68.2805 101.818V97.5909ZM73.0249 103.085C72.5836 103.085 72.2019 102.991 71.88 102.804C71.5599 102.615 71.3127 102.351 71.1385 102.014C70.9643 101.675 70.8771 101.282 70.8771 100.835C70.8771 100.384 70.9643 99.9905 71.1385 99.6534C71.3127 99.3144 71.5599 99.0511 71.88 98.8636C72.2019 98.6742 72.5836 98.5795 73.0249 98.5795C73.4661 98.5795 73.8468 98.6742 74.1669 98.8636C74.4889 99.0511 74.737 99.3144 74.9112 99.6534C75.0855 99.9905 75.1726 100.384 75.1726 100.835C75.1726 101.282 75.0855 101.675 74.9112 102.014C74.737 102.351 74.4889 102.615 74.1669 102.804C73.8468 102.991 73.4661 103.085 73.0249 103.085ZM73.0305 102.148C73.2313 102.148 73.3989 102.091 73.5334 101.977C73.6679 101.862 73.7692 101.705 73.8374 101.506C73.9074 101.307 73.9425 101.08 73.9425 100.827C73.9425 100.573 73.9074 100.347 73.8374 100.148C73.7692 99.9489 73.6679 99.7917 73.5334 99.6761C73.3989 99.5606 73.2313 99.5028 73.0305 99.5028C72.8279 99.5028 72.6574 99.5606 72.5192 99.6761C72.3828 99.7917 72.2796 99.9489 72.2095 100.148C72.1413 100.347 72.1072 100.573 72.1072 100.827C72.1072 101.08 72.1413 101.307 72.2095 101.506C72.2796 101.705 72.3828 101.862 72.5192 101.977C72.6574 102.091 72.8279 102.148 73.0305 102.148ZM77.5675 103.071C77.236 103.071 76.9358 102.986 76.6669 102.815C76.3999 102.643 76.1877 102.39 76.0305 102.057C75.8752 101.722 75.7976 101.311 75.7976 100.824C75.7976 100.324 75.8781 99.9081 76.0391 99.5767C76.2 99.2434 76.4141 98.9943 76.6811 98.8295C76.95 98.6629 77.2446 98.5795 77.5646 98.5795C77.8089 98.5795 78.0125 98.6212 78.1754 98.7045C78.3402 98.786 78.4728 98.8883 78.5732 99.0114C78.6754 99.1326 78.7531 99.2519 78.8061 99.3693H78.843V97.1818H80.0504V103H78.8572V102.301H78.8061C78.7493 102.422 78.6688 102.543 78.5646 102.662C78.4624 102.779 78.3288 102.877 78.1641 102.955C78.0012 103.032 77.8023 103.071 77.5675 103.071ZM77.951 102.108C78.1461 102.108 78.3108 102.055 78.4453 101.949C78.5817 101.841 78.6858 101.69 78.7578 101.497C78.8317 101.304 78.8686 101.078 78.8686 100.818C78.8686 100.559 78.8326 100.333 78.7607 100.142C78.6887 99.9508 78.5845 99.803 78.4482 99.6989C78.3118 99.5947 78.1461 99.5426 77.951 99.5426C77.7521 99.5426 77.5845 99.5966 77.4482 99.7045C77.3118 99.8125 77.2086 99.9621 77.1385 100.153C77.0684 100.345 77.0334 100.566 77.0334 100.818C77.0334 101.072 77.0684 101.296 77.1385 101.491C77.2105 101.685 77.3137 101.836 77.4482 101.946C77.5845 102.054 77.7521 102.108 77.951 102.108ZM82.2898 103.082C82.0114 103.082 81.7633 103.034 81.5455 102.938C81.3277 102.839 81.1553 102.694 81.0284 102.503C80.9034 102.31 80.8409 102.069 80.8409 101.781C80.8409 101.539 80.8854 101.335 80.9744 101.17C81.0634 101.006 81.1847 100.873 81.3381 100.773C81.4915 100.672 81.6657 100.597 81.8608 100.545C82.0578 100.494 82.2642 100.458 82.4801 100.438C82.7339 100.411 82.9384 100.386 83.0938 100.364C83.2491 100.339 83.3617 100.303 83.4318 100.256C83.5019 100.208 83.5369 100.138 83.5369 100.045V100.028C83.5369 99.8485 83.4801 99.7093 83.3665 99.6108C83.2547 99.5123 83.0956 99.4631 82.8892 99.4631C82.6714 99.4631 82.4981 99.5114 82.3693 99.608C82.2405 99.7027 82.1553 99.822 82.1136 99.9659L80.9943 99.875C81.0511 99.6098 81.1629 99.3807 81.3295 99.1875C81.4962 98.9924 81.7112 98.8428 81.9744 98.7386C82.2396 98.6326 82.5464 98.5795 82.8949 98.5795C83.1373 98.5795 83.3693 98.608 83.5909 98.6648C83.8144 98.7216 84.0123 98.8097 84.1847 98.929C84.3589 99.0483 84.4962 99.2017 84.5966 99.3892C84.697 99.5748 84.7472 99.7973 84.7472 100.057V103H83.5994V102.395H83.5653C83.4953 102.531 83.4015 102.652 83.2841 102.756C83.1667 102.858 83.0256 102.938 82.8608 102.997C82.696 103.054 82.5057 103.082 82.2898 103.082ZM82.6364 102.247C82.8144 102.247 82.9716 102.212 83.108 102.142C83.2443 102.07 83.3513 101.973 83.429 101.852C83.5066 101.731 83.5455 101.594 83.5455 101.44V100.977C83.5076 101.002 83.4555 101.025 83.3892 101.045C83.3248 101.064 83.2519 101.082 83.1705 101.099C83.089 101.115 83.0076 101.129 82.9261 101.142C82.8447 101.153 82.7708 101.164 82.7045 101.173C82.5625 101.194 82.4384 101.227 82.3324 101.273C82.2263 101.318 82.1439 101.38 82.0852 101.457C82.0265 101.533 81.9972 101.628 81.9972 101.741C81.9972 101.906 82.0568 102.032 82.1761 102.119C82.2973 102.205 82.4508 102.247 82.6364 102.247ZM86.277 104.636C86.1236 104.636 85.9796 104.624 85.8452 104.599C85.7126 104.577 85.6027 104.547 85.5156 104.511L85.7884 103.608C85.9304 103.652 86.0582 103.675 86.1719 103.679C86.2874 103.683 86.3868 103.656 86.4702 103.599C86.5554 103.543 86.6245 103.446 86.6776 103.31L86.7486 103.125L85.1832 98.6364H86.456L87.3594 101.841H87.4048L88.3168 98.6364H89.598L87.902 103.472C87.8205 103.706 87.7098 103.911 87.5696 104.085C87.4313 104.261 87.2562 104.397 87.044 104.491C86.8319 104.588 86.5762 104.636 86.277 104.636ZM91.4815 97.1818V97.7955C91.4815 97.9697 91.4474 98.1477 91.3793 98.3295C91.313 98.5095 91.224 98.6799 91.1122 98.8409C91.0005 99 90.8783 99.1354 90.7457 99.2472L90.2116 98.9318C90.3063 98.7822 90.3897 98.6165 90.4616 98.4347C90.5355 98.2528 90.5724 98.0417 90.5724 97.8011V97.1818H91.4815ZM95.3714 99.8807L94.2635 99.9489C94.2446 99.8542 94.2038 99.7689 94.1413 99.6932C94.0788 99.6155 93.9964 99.554 93.8942 99.5085C93.7938 99.4612 93.6735 99.4375 93.5334 99.4375C93.3459 99.4375 93.1877 99.4773 93.0589 99.5568C92.9302 99.6345 92.8658 99.7386 92.8658 99.8693C92.8658 99.9735 92.9074 100.062 92.9908 100.134C93.0741 100.205 93.2171 100.263 93.4197 100.307L94.2095 100.466C94.6338 100.553 94.95 100.693 95.1584 100.886C95.3667 101.08 95.4709 101.333 95.4709 101.648C95.4709 101.934 95.3866 102.185 95.218 102.401C95.0514 102.616 94.8222 102.785 94.5305 102.906C94.2408 103.026 93.9065 103.085 93.5277 103.085C92.95 103.085 92.4898 102.965 92.147 102.724C91.8061 102.482 91.6063 102.152 91.5476 101.736L92.7379 101.673C92.7739 101.849 92.861 101.984 92.9993 102.077C93.1375 102.168 93.3146 102.213 93.5305 102.213C93.7427 102.213 93.9131 102.172 94.0419 102.091C94.1726 102.008 94.2389 101.901 94.2408 101.77C94.2389 101.66 94.1925 101.57 94.1016 101.5C94.0107 101.428 93.8705 101.373 93.6811 101.335L92.9254 101.185C92.4993 101.099 92.1821 100.952 91.9737 100.741C91.7673 100.531 91.6641 100.263 91.6641 99.9375C91.6641 99.6572 91.7398 99.4157 91.8913 99.2131C92.0447 99.0104 92.2597 98.8542 92.5362 98.7443C92.8146 98.6345 93.1404 98.5795 93.5135 98.5795C94.0646 98.5795 94.4983 98.696 94.8146 98.929C95.1328 99.1619 95.3184 99.4792 95.3714 99.8807ZM100.406 98.6364V99.5455H97.7777V98.6364H100.406ZM98.3743 97.5909H99.5845V101.659C99.5845 101.771 99.6016 101.858 99.6357 101.92C99.6697 101.981 99.7171 102.024 99.7777 102.048C99.8402 102.073 99.9122 102.085 99.9936 102.085C100.05 102.085 100.107 102.08 100.164 102.071C100.221 102.06 100.264 102.051 100.295 102.045L100.485 102.946C100.424 102.965 100.339 102.987 100.229 103.011C100.12 103.038 99.986 103.054 99.8288 103.06C99.5372 103.071 99.2815 103.032 99.0618 102.943C98.844 102.854 98.6745 102.716 98.5533 102.528C98.4321 102.341 98.3724 102.104 98.3743 101.818V97.5909ZM102.438 103.082C102.16 103.082 101.912 103.034 101.694 102.938C101.476 102.839 101.304 102.694 101.177 102.503C101.052 102.31 100.989 102.069 100.989 101.781C100.989 101.539 101.034 101.335 101.123 101.17C101.212 101.006 101.333 100.873 101.487 100.773C101.64 100.672 101.814 100.597 102.009 100.545C102.206 100.494 102.413 100.458 102.629 100.438C102.882 100.411 103.087 100.386 103.242 100.364C103.397 100.339 103.51 100.303 103.58 100.256C103.65 100.208 103.685 100.138 103.685 100.045V100.028C103.685 99.8485 103.629 99.7093 103.515 99.6108C103.403 99.5123 103.244 99.4631 103.038 99.4631C102.82 99.4631 102.647 99.5114 102.518 99.608C102.389 99.7027 102.304 99.822 102.262 99.9659L101.143 99.875C101.2 99.6098 101.311 99.3807 101.478 99.1875C101.645 98.9924 101.86 98.8428 102.123 98.7386C102.388 98.6326 102.695 98.5795 103.043 98.5795C103.286 98.5795 103.518 98.608 103.739 98.6648C103.963 98.7216 104.161 98.8097 104.333 98.929C104.507 99.0483 104.645 99.2017 104.745 99.3892C104.845 99.5748 104.896 99.7973 104.896 100.057V103H103.748V102.395H103.714C103.644 102.531 103.55 102.652 103.433 102.756C103.315 102.858 103.174 102.938 103.009 102.997C102.844 103.054 102.654 103.082 102.438 103.082ZM102.785 102.247C102.963 102.247 103.12 102.212 103.256 102.142C103.393 102.07 103.5 101.973 103.577 101.852C103.655 101.731 103.694 101.594 103.694 101.44V100.977C103.656 101.002 103.604 101.025 103.538 101.045C103.473 101.064 103.4 101.082 103.319 101.099C103.237 101.115 103.156 101.129 103.075 101.142C102.993 101.153 102.919 101.164 102.853 101.173C102.711 101.194 102.587 101.227 102.481 101.273C102.375 101.318 102.292 101.38 102.234 101.457C102.175 101.533 102.146 101.628 102.146 101.741C102.146 101.906 102.205 102.032 102.325 102.119C102.446 102.205 102.599 102.247 102.785 102.247ZM109.465 99.8807L108.357 99.9489C108.338 99.8542 108.298 99.7689 108.235 99.6932C108.173 99.6155 108.09 99.554 107.988 99.5085C107.888 99.4612 107.767 99.4375 107.627 99.4375C107.44 99.4375 107.281 99.4773 107.153 99.5568C107.024 99.6345 106.96 99.7386 106.96 99.8693C106.96 99.9735 107.001 100.062 107.085 100.134C107.168 100.205 107.311 100.263 107.513 100.307L108.303 100.466C108.728 100.553 109.044 100.693 109.252 100.886C109.46 101.08 109.565 101.333 109.565 101.648C109.565 101.934 109.48 102.185 109.312 102.401C109.145 102.616 108.916 102.785 108.624 102.906C108.335 103.026 108 103.085 107.621 103.085C107.044 103.085 106.584 102.965 106.241 102.724C105.9 102.482 105.7 102.152 105.641 101.736L106.832 101.673C106.868 101.849 106.955 101.984 107.093 102.077C107.231 102.168 107.408 102.213 107.624 102.213C107.836 102.213 108.007 102.172 108.136 102.091C108.266 102.008 108.333 101.901 108.335 101.77C108.333 101.66 108.286 101.57 108.195 101.5C108.104 101.428 107.964 101.373 107.775 101.335L107.019 101.185C106.593 101.099 106.276 100.952 106.067 100.741C105.861 100.531 105.758 100.263 105.758 99.9375C105.758 99.6572 105.834 99.4157 105.985 99.2131C106.138 99.0104 106.353 98.8542 106.63 98.7443C106.908 98.6345 107.234 98.5795 107.607 98.5795C108.158 98.5795 108.592 98.696 108.908 98.929C109.227 99.1619 109.412 99.4792 109.465 99.8807ZM111.423 101.744L111.426 100.293H111.602L113 98.6364H114.389L112.511 100.83H112.224L111.423 101.744ZM110.327 103V97.1818H111.537V103H110.327ZM113.054 103L111.77 101.099L112.577 100.244L114.472 103H113.054ZM60.3864 113.091C59.9773 113.091 59.625 112.994 59.3295 112.801C59.0341 112.608 58.8068 112.342 58.6477 112.003C58.4886 111.664 58.4091 111.277 58.4091 110.841C58.4091 110.398 58.4905 110.007 58.6534 109.668C58.8182 109.327 59.0473 109.061 59.3409 108.869C59.6364 108.676 59.9811 108.58 60.375 108.58C60.6818 108.58 60.9583 108.636 61.2045 108.75C61.4508 108.864 61.6525 109.023 61.8097 109.227C61.9669 109.432 62.0644 109.67 62.1023 109.943H61.4318C61.3807 109.744 61.267 109.568 61.0909 109.415C60.9167 109.259 60.6818 109.182 60.3864 109.182C60.125 109.182 59.8958 109.25 59.6989 109.386C59.5038 109.521 59.3513 109.711 59.2415 109.957C59.1335 110.202 59.0795 110.489 59.0795 110.818C59.0795 111.155 59.1326 111.449 59.2386 111.699C59.3466 111.949 59.4981 112.143 59.6932 112.281C59.8902 112.42 60.1212 112.489 60.3864 112.489C60.5606 112.489 60.7188 112.458 60.8608 112.398C61.0028 112.337 61.1231 112.25 61.2216 112.136C61.3201 112.023 61.3902 111.886 61.4318 111.727H62.1023C62.0644 111.985 61.9706 112.217 61.821 112.423C61.6733 112.628 61.4773 112.791 61.233 112.912C60.9905 113.031 60.7083 113.091 60.3864 113.091ZM64.8551 113.091C64.4612 113.091 64.1155 112.997 63.8182 112.81C63.5227 112.622 63.2917 112.36 63.125 112.023C62.9602 111.686 62.8778 111.292 62.8778 110.841C62.8778 110.386 62.9602 109.99 63.125 109.651C63.2917 109.312 63.5227 109.048 63.8182 108.861C64.1155 108.673 64.4612 108.58 64.8551 108.58C65.2491 108.58 65.5938 108.673 65.8892 108.861C66.1866 109.048 66.4176 109.312 66.5824 109.651C66.7491 109.99 66.8324 110.386 66.8324 110.841C66.8324 111.292 66.7491 111.686 66.5824 112.023C66.4176 112.36 66.1866 112.622 65.8892 112.81C65.5938 112.997 65.2491 113.091 64.8551 113.091ZM64.8551 112.489C65.1544 112.489 65.4006 112.412 65.5938 112.259C65.7869 112.105 65.9299 111.903 66.0227 111.653C66.1155 111.403 66.1619 111.133 66.1619 110.841C66.1619 110.549 66.1155 110.277 66.0227 110.026C65.9299 109.774 65.7869 109.57 65.5938 109.415C65.4006 109.259 65.1544 109.182 64.8551 109.182C64.5559 109.182 64.3097 109.259 64.1165 109.415C63.9233 109.57 63.7803 109.774 63.6875 110.026C63.5947 110.277 63.5483 110.549 63.5483 110.841C63.5483 111.133 63.5947 111.403 63.6875 111.653C63.7803 111.903 63.9233 112.105 64.1165 112.259C64.3097 112.412 64.5559 112.489 64.8551 112.489ZM67.8558 113V108.636H68.5036V109.318H68.5604C68.6513 109.085 68.7981 108.904 69.0007 108.776C69.2034 108.645 69.4467 108.58 69.7308 108.58C70.0187 108.58 70.2583 108.645 70.4496 108.776C70.6428 108.904 70.7933 109.085 70.9013 109.318H70.9467C71.0585 109.093 71.2261 108.914 71.4496 108.781C71.6731 108.647 71.9411 108.58 72.2536 108.58C72.6437 108.58 72.9628 108.702 73.2109 108.946C73.459 109.188 73.5831 109.566 73.5831 110.08V113H72.9126V110.08C72.9126 109.758 72.8246 109.527 72.6484 109.389C72.4723 109.251 72.2649 109.182 72.0263 109.182C71.7195 109.182 71.4818 109.275 71.3132 109.46C71.1446 109.644 71.0604 109.877 71.0604 110.159V113H70.3786V110.011C70.3786 109.763 70.2981 109.563 70.1371 109.412C69.9761 109.259 69.7687 109.182 69.5149 109.182C69.3407 109.182 69.1778 109.228 69.0263 109.321C68.8767 109.414 68.7554 109.543 68.6626 109.707C68.5717 109.87 68.5263 110.059 68.5263 110.273V113H67.8558ZM74.8089 114.636V108.636H75.4567V109.33H75.5362C75.5855 109.254 75.6536 109.157 75.7408 109.04C75.8298 108.92 75.9567 108.814 76.1214 108.722C76.2881 108.627 76.5135 108.58 76.7976 108.58C77.165 108.58 77.4889 108.671 77.7692 108.855C78.0495 109.039 78.2682 109.299 78.4254 109.636C78.5826 109.973 78.6612 110.371 78.6612 110.83C78.6612 111.292 78.5826 111.692 78.4254 112.031C78.2682 112.368 78.0504 112.63 77.772 112.815C77.4936 112.999 77.1726 113.091 76.8089 113.091C76.5286 113.091 76.3042 113.045 76.1357 112.952C75.9671 112.857 75.8374 112.75 75.7464 112.631C75.6555 112.509 75.5855 112.409 75.5362 112.33H75.4794V114.636H74.8089ZM75.468 110.818C75.468 111.148 75.5163 111.438 75.6129 111.69C75.7095 111.94 75.8506 112.136 76.0362 112.278C76.2218 112.419 76.4491 112.489 76.718 112.489C76.9983 112.489 77.2322 112.415 77.4197 112.267C77.6091 112.117 77.7512 111.917 77.8459 111.665C77.9425 111.411 77.9908 111.129 77.9908 110.818C77.9908 110.511 77.9434 110.235 77.8487 109.989C77.7559 109.741 77.6148 109.545 77.4254 109.401C77.2379 109.255 77.0021 109.182 76.718 109.182C76.4453 109.182 76.2161 109.251 76.0305 109.389C75.8449 109.526 75.7048 109.717 75.6101 109.963C75.5154 110.207 75.468 110.492 75.468 110.818ZM80.3544 107.182V113H79.6839V107.182H80.3544ZM83.4119 113.091C82.9915 113.091 82.6288 112.998 82.3239 112.812C82.0208 112.625 81.7869 112.364 81.6222 112.028C81.4593 111.691 81.3778 111.299 81.3778 110.852C81.3778 110.405 81.4593 110.011 81.6222 109.67C81.7869 109.328 82.0161 109.061 82.3097 108.869C82.6051 108.676 82.9498 108.58 83.3438 108.58C83.571 108.58 83.7955 108.617 84.017 108.693C84.2386 108.769 84.4403 108.892 84.6222 109.062C84.804 109.231 84.9489 109.455 85.0568 109.733C85.1648 110.011 85.2188 110.354 85.2188 110.761V111.045H81.8551V110.466H84.5369C84.5369 110.22 84.4877 110 84.3892 109.807C84.2926 109.614 84.1544 109.461 83.9744 109.349C83.7964 109.238 83.5862 109.182 83.3438 109.182C83.0767 109.182 82.8456 109.248 82.6506 109.381C82.4574 109.511 82.3087 109.682 82.2045 109.892C82.1004 110.102 82.0483 110.328 82.0483 110.568V110.955C82.0483 111.284 82.1051 111.563 82.2188 111.793C82.3343 112.02 82.4943 112.193 82.6989 112.312C82.9034 112.43 83.1411 112.489 83.4119 112.489C83.5881 112.489 83.7472 112.464 83.8892 112.415C84.0331 112.364 84.1572 112.288 84.2614 112.188C84.3655 112.085 84.446 111.958 84.5028 111.807L85.1506 111.989C85.0824 112.208 84.9678 112.402 84.8068 112.568C84.6458 112.733 84.447 112.862 84.2102 112.955C83.9735 113.045 83.7074 113.091 83.4119 113.091ZM88.1364 108.636V109.205H85.875V108.636H88.1364ZM86.5341 107.591H87.2045V111.75C87.2045 111.939 87.232 112.081 87.2869 112.176C87.3438 112.269 87.4157 112.331 87.5028 112.364C87.5919 112.394 87.6856 112.409 87.7841 112.409C87.858 112.409 87.9186 112.405 87.9659 112.398C88.0133 112.388 88.0511 112.381 88.0795 112.375L88.2159 112.977C88.1705 112.994 88.107 113.011 88.0256 113.028C87.9441 113.047 87.8409 113.057 87.7159 113.057C87.5265 113.057 87.3409 113.016 87.1591 112.935C86.9792 112.853 86.8295 112.729 86.7102 112.562C86.5928 112.396 86.5341 112.186 86.5341 111.932V107.591ZM90.9276 113.091C90.5071 113.091 90.1444 112.998 89.8395 112.812C89.5365 112.625 89.3026 112.364 89.1378 112.028C88.9749 111.691 88.8935 111.299 88.8935 110.852C88.8935 110.405 88.9749 110.011 89.1378 109.67C89.3026 109.328 89.5317 109.061 89.8253 108.869C90.1207 108.676 90.4654 108.58 90.8594 108.58C91.0866 108.58 91.3111 108.617 91.5327 108.693C91.7543 108.769 91.956 108.892 92.1378 109.062C92.3196 109.231 92.4645 109.455 92.5724 109.733C92.6804 110.011 92.7344 110.354 92.7344 110.761V111.045H89.3707V110.466H92.0526C92.0526 110.22 92.0033 110 91.9048 109.807C91.8082 109.614 91.67 109.461 91.4901 109.349C91.312 109.238 91.1018 109.182 90.8594 109.182C90.5923 109.182 90.3613 109.248 90.1662 109.381C89.973 109.511 89.8243 109.682 89.7202 109.892C89.616 110.102 89.5639 110.328 89.5639 110.568V110.955C89.5639 111.284 89.6207 111.563 89.7344 111.793C89.8499 112.02 90.0099 112.193 90.2145 112.312C90.419 112.43 90.6567 112.489 90.9276 112.489C91.1037 112.489 91.2628 112.464 91.4048 112.415C91.5488 112.364 91.6728 112.288 91.777 112.188C91.8812 112.085 91.9616 111.958 92.0185 111.807L92.6662 111.989C92.598 112.208 92.4834 112.402 92.3224 112.568C92.1615 112.733 91.9626 112.862 91.7259 112.955C91.4891 113.045 91.223 113.091 90.9276 113.091ZM95.402 113.091C95.0384 113.091 94.7173 112.999 94.4389 112.815C94.1605 112.63 93.9427 112.368 93.7855 112.031C93.6283 111.692 93.5497 111.292 93.5497 110.83C93.5497 110.371 93.6283 109.973 93.7855 109.636C93.9427 109.299 94.1615 109.039 94.4418 108.855C94.7221 108.671 95.0459 108.58 95.4134 108.58C95.6974 108.58 95.9219 108.627 96.0866 108.722C96.2533 108.814 96.3802 108.92 96.4673 109.04C96.5563 109.157 96.6255 109.254 96.6747 109.33H96.7315V107.182H97.402V113H96.7543V112.33H96.6747C96.6255 112.409 96.5554 112.509 96.4645 112.631C96.3736 112.75 96.2438 112.857 96.0753 112.952C95.9067 113.045 95.6823 113.091 95.402 113.091ZM95.4929 112.489C95.7618 112.489 95.9891 112.419 96.1747 112.278C96.3603 112.136 96.5014 111.94 96.598 111.69C96.6946 111.438 96.7429 111.148 96.7429 110.818C96.7429 110.492 96.6955 110.207 96.6009 109.963C96.5062 109.717 96.366 109.526 96.1804 109.389C95.9948 109.251 95.7656 109.182 95.4929 109.182C95.2088 109.182 94.9721 109.255 94.7827 109.401C94.5952 109.545 94.4541 109.741 94.3594 109.989C94.2666 110.235 94.2202 110.511 94.2202 110.818C94.2202 111.129 94.2675 111.411 94.3622 111.665C94.4588 111.917 94.6009 112.117 94.7884 112.267C94.9777 112.415 95.2126 112.489 95.4929 112.489Z" fill="black"/>
<defs>
<filter id="filter0_d_14_321" x="0" y="0" width="172" height="172" filterUnits="userSpaceOnUse" color-interpolation-filters="sRGB">
<feFlood flood-opacity="0" result="BackgroundImageFix"/>
<feColorMatrix in="SourceAlpha" type="matrix" values="0 0 0 0 0 0 0 0 0 0 0 0 0 0 0 0 0 0 127 0" result="hardAlpha"/>
<feOffset/>
<feGaussianBlur stdDeviation="3.5"/>
<feComposite in2="hardAlpha" operator="out"/>
<feColorMatrix type="matrix" values="0 0 0 0 0 0 0 0 0 0 0 0 0 0 0 0 0 0 0.25 0"/>
<feBlend mode="normal" in2="BackgroundImageFix" result="effect1_dropShadow_14_321"/>
<feBlend mode="normal" in="SourceGraphic" in2="effect1_dropShadow_14_321" result="shape"/>
</filter>
</defs>
</svg>
