<svg width="172" height="172" viewBox="0 0 172 172" fill="none" xmlns="http://www.w3.org/2000/svg">
<path opacity="0.4" d="M85.5 20.5C121.675 20.5 151 49.8253 151 86C151 122.175 121.675 151.5 85.5 151.5C49.3253 151.5 20 122.175 20 86C20 49.8253 49.3253 20.5 85.5 20.5ZM85.5 138.4C114.44 138.4 137.9 114.94 137.9 86C137.9 57.0603 114.44 33.6 85.5 33.6C56.5603 33.6 33.1 57.0603 33.1 86C33.1 114.94 56.5603 138.4 85.5 138.4Z" fill="#FF8289"/>
<g opacity="0.4" filter="url(#filter0_d_14_344)">
<path d="M86 7C129.63 6.99999 165 42.3695 165 86C165 129.63 129.63 165 86 165C42.3695 165 7 129.63 7 86C6.99999 42.3695 42.3695 7 86 7ZM86 149.2C120.904 149.2 149.2 120.904 149.2 86C149.2 51.0956 120.904 22.8 86 22.8C51.0956 22.8 22.8 51.0956 22.8 86C22.8 120.904 51.0956 149.2 86 149.2Z" fill="#FFA5AA"/>
</g>
<path d="M85.5 27.05C85.5 23.4325 88.4398 20.466 92.0392 20.8272C103.545 21.9815 114.582 26.167 124 33.0094C135.19 41.1398 143.52 52.6041 147.794 65.7594C152.069 78.9146 152.069 93.0854 147.794 106.241C144.197 117.312 137.728 127.186 129.098 134.882C126.398 137.29 122.276 136.618 120.15 133.692V133.692C118.024 130.765 118.706 126.696 121.345 124.222C127.766 118.2 132.593 110.631 135.335 102.192C138.755 91.6683 138.755 80.3317 135.335 69.8075C131.916 59.2833 125.252 50.1118 116.3 43.6075C109.122 38.3921 100.767 35.1063 92.0332 34.0088C88.4439 33.5578 85.5 30.6675 85.5 27.05V27.05Z" fill="#FF8289"/>
<g filter="url(#filter1_d_14_344)">
<path d="M86 14.9C86 10.5369 89.5458 6.95905 93.887 7.39461C107.764 8.78688 121.076 13.835 132.435 22.0877C145.932 31.8938 155.978 45.721 161.133 61.5877C166.289 77.4543 166.289 94.5457 161.133 110.412C156.795 123.765 148.992 135.674 138.584 144.957C135.328 147.861 130.356 147.051 127.792 143.521V143.521C125.227 139.991 126.051 135.084 129.233 132.099C136.977 124.837 142.8 115.708 146.107 105.53C150.231 92.8366 150.231 79.1634 146.107 66.4701C141.982 53.7768 133.946 42.715 123.148 34.8701C114.49 28.5798 104.414 24.6168 93.8797 23.2931C89.5507 22.7491 86 19.263 86 14.9V14.9Z" fill="#FFA5AA"/>
</g>
<path d="M55.3838 83.6322V79.9686L64.5697 65.4967H67.7284V70.5678H65.859L60.0681 79.7322V79.9041H73.1218V83.6322H55.3838ZM65.9449 87.5V82.5149L66.0309 80.8926V65.4967H70.3929V87.5H65.9449ZM84.8486 87.9835C83.0007 87.9763 81.4106 87.5215 80.0784 86.619C78.7533 85.7165 77.7327 84.4094 77.0164 82.6975C76.3073 80.9857 75.9564 78.9264 75.9635 76.5198C75.9635 74.1204 76.3181 72.0755 77.0272 70.3851C77.7434 68.6948 78.7641 67.4091 80.0891 66.5281C81.4214 65.6399 83.0079 65.1959 84.8486 65.1959C86.6894 65.1959 88.2723 65.6399 89.5974 66.5281C90.9296 67.4163 91.9539 68.7055 92.6701 70.3959C93.3864 72.0791 93.7409 74.1204 93.7338 76.5198C93.7338 78.9336 93.3756 80.9964 92.6594 82.7083C91.9503 84.4201 90.9332 85.7273 89.6081 86.6298C88.2831 87.5322 86.6966 87.9835 84.8486 87.9835ZM84.8486 84.1264C86.1092 84.1264 87.1156 83.4926 87.8676 82.2248C88.6197 80.957 88.9922 79.0554 88.985 76.5198C88.985 74.851 88.8131 73.4614 88.4693 72.3512C88.1327 71.241 87.6528 70.4066 87.0296 69.8479C86.4137 69.2893 85.6867 69.0099 84.8486 69.0099C83.5952 69.0099 82.5924 69.6366 81.8404 70.8901C81.0883 72.1435 80.7087 74.0201 80.7015 76.5198C80.7015 78.2102 80.8699 79.6212 81.2065 80.7529C81.5503 81.8774 82.0338 82.7226 82.6569 83.2884C83.28 83.8471 84.0106 84.1264 84.8486 84.1264ZM109.095 83.3744V82.214C109.095 81.3331 109.281 80.5237 109.653 79.786C110.033 79.041 110.581 78.4466 111.297 78.0025C112.021 77.5512 112.902 77.3256 113.94 77.3256C114.993 77.3256 115.878 77.5477 116.594 77.9917C117.317 78.4358 117.862 79.0303 118.227 79.7752C118.599 80.5129 118.786 81.3259 118.786 82.214V83.3744C118.786 84.2554 118.599 85.0683 118.227 85.8132C117.854 86.551 117.307 87.1419 116.583 87.586C115.86 88.0372 114.979 88.2628 113.94 88.2628C112.887 88.2628 112.003 88.0372 111.286 87.586C110.57 87.1419 110.026 86.551 109.653 85.8132C109.281 85.0683 109.095 84.2554 109.095 83.3744ZM112.221 82.214V83.3744C112.221 83.8829 112.343 84.3628 112.586 84.814C112.837 85.2653 113.288 85.4909 113.94 85.4909C114.592 85.4909 115.036 85.2689 115.272 84.8248C115.516 84.3807 115.638 83.8972 115.638 83.3744V82.214C115.638 81.6912 115.523 81.2041 115.294 80.7529C115.065 80.3017 114.613 80.076 113.94 80.076C113.296 80.076 112.848 80.3017 112.597 80.7529C112.347 81.2041 112.221 81.6912 112.221 82.214ZM97.803 70.7826V69.6223C97.803 68.7342 97.9928 67.9212 98.3724 67.1835C98.752 66.4386 99.2999 65.8441 100.016 65.4C100.74 64.9559 101.613 64.7339 102.638 64.7339C103.698 64.7339 104.586 64.9559 105.302 65.4C106.018 65.8441 106.563 66.4386 106.935 67.1835C107.308 67.9212 107.494 68.7342 107.494 69.6223V70.7826C107.494 71.6708 107.304 72.4837 106.924 73.2215C106.552 73.9592 106.004 74.5501 105.281 74.9942C104.564 75.4311 103.683 75.6496 102.638 75.6496C101.592 75.6496 100.707 75.4275 99.984 74.9835C99.2677 74.5322 98.7234 73.9413 98.3509 73.2107C97.9856 72.473 97.803 71.6636 97.803 70.7826ZM100.951 69.6223V70.7826C100.951 71.3055 101.073 71.789 101.316 72.2331C101.567 72.6771 102.007 72.8992 102.638 72.8992C103.297 72.8992 103.744 72.6771 103.981 72.2331C104.224 71.789 104.346 71.3055 104.346 70.7826V69.6223C104.346 69.0994 104.231 68.6124 104.002 68.1612C103.773 67.7099 103.318 67.4843 102.638 67.4843C102 67.4843 101.56 67.7135 101.316 68.1719C101.073 68.6303 100.951 69.1138 100.951 69.6223ZM99.2212 87.5L114.348 65.4967H117.163L102.036 87.5H99.2212Z" fill="black"/>
<path d="M56.3197 102.591C55.9258 102.591 55.5801 102.497 55.2828 102.31C54.9873 102.122 54.7563 101.86 54.5896 101.523C54.4248 101.186 54.3424 100.792 54.3424 100.341C54.3424 99.8864 54.4248 99.4896 54.5896 99.1506C54.7563 98.8116 54.9873 98.5483 55.2828 98.3608C55.5801 98.1733 55.9258 98.0795 56.3197 98.0795C56.7137 98.0795 57.0583 98.1733 57.3538 98.3608C57.6512 98.5483 57.8822 98.8116 58.047 99.1506C58.2137 99.4896 58.297 99.8864 58.297 100.341C58.297 100.792 58.2137 101.186 58.047 101.523C57.8822 101.86 57.6512 102.122 57.3538 102.31C57.0583 102.497 56.7137 102.591 56.3197 102.591ZM56.3197 101.989C56.619 101.989 56.8652 101.912 57.0583 101.759C57.2515 101.605 57.3945 101.403 57.4873 101.153C57.5801 100.903 57.6265 100.633 57.6265 100.341C57.6265 100.049 57.5801 99.7775 57.4873 99.5256C57.3945 99.2737 57.2515 99.0701 57.0583 98.9148C56.8652 98.7595 56.619 98.6818 56.3197 98.6818C56.0205 98.6818 55.7743 98.7595 55.5811 98.9148C55.3879 99.0701 55.2449 99.2737 55.1521 99.5256C55.0593 99.7775 55.0129 100.049 55.0129 100.341C55.0129 100.633 55.0593 100.903 55.1521 101.153C55.2449 101.403 55.3879 101.605 55.5811 101.759C55.7743 101.912 56.0205 101.989 56.3197 101.989ZM61.2636 98.1364V98.7045H58.9113V98.1364H61.2636ZM59.6159 102.5V97.5341C59.6159 97.2841 59.6746 97.0758 59.792 96.9091C59.9094 96.7424 60.0619 96.6174 60.2494 96.5341C60.4369 96.4508 60.6348 96.4091 60.8432 96.4091C61.0079 96.4091 61.1424 96.4223 61.2466 96.4489C61.3507 96.4754 61.4284 96.5 61.4795 96.5227L61.2863 97.1023C61.2522 97.0909 61.2049 97.0767 61.1443 97.0597C61.0856 97.0426 61.0079 97.0341 60.9113 97.0341C60.6897 97.0341 60.5297 97.09 60.4312 97.2017C60.3346 97.3134 60.2863 97.4773 60.2863 97.6932V102.5H59.6159ZM66.2451 98.1364V99.0455H63.6173V98.1364H66.2451ZM64.2139 97.0909H65.4241V101.159C65.4241 101.271 65.4412 101.358 65.4753 101.42C65.5093 101.481 65.5567 101.524 65.6173 101.548C65.6798 101.573 65.7518 101.585 65.8332 101.585C65.89 101.585 65.9468 101.58 66.0037 101.571C66.0605 101.56 66.104 101.551 66.1343 101.545L66.3247 102.446C66.2641 102.465 66.1789 102.487 66.069 102.511C65.9592 102.538 65.8256 102.554 65.6684 102.56C65.3768 102.571 65.1211 102.532 64.9014 102.443C64.6836 102.354 64.5141 102.216 64.3929 102.028C64.2717 101.841 64.212 101.604 64.2139 101.318V97.0909ZM68.9582 102.585C68.5169 102.585 68.1353 102.491 67.8133 102.304C67.4932 102.115 67.2461 101.851 67.0718 101.514C66.8976 101.175 66.8105 100.782 66.8105 100.335C66.8105 99.8845 66.8976 99.4905 67.0718 99.1534C67.2461 98.8144 67.4932 98.5511 67.8133 98.3636C68.1353 98.1742 68.5169 98.0795 68.9582 98.0795C69.3995 98.0795 69.7802 98.1742 70.1003 98.3636C70.4222 98.5511 70.6703 98.8144 70.8446 99.1534C71.0188 99.4905 71.1059 99.8845 71.1059 100.335C71.1059 100.782 71.0188 101.175 70.8446 101.514C70.6703 101.851 70.4222 102.115 70.1003 102.304C69.7802 102.491 69.3995 102.585 68.9582 102.585ZM68.9639 101.648C69.1646 101.648 69.3323 101.591 69.4667 101.477C69.6012 101.362 69.7025 101.205 69.7707 101.006C69.8408 100.807 69.8758 100.58 69.8758 100.327C69.8758 100.073 69.8408 99.8466 69.7707 99.6477C69.7025 99.4489 69.6012 99.2917 69.4667 99.1761C69.3323 99.0606 69.1646 99.0028 68.9639 99.0028C68.7612 99.0028 68.5908 99.0606 68.4525 99.1761C68.3162 99.2917 68.2129 99.4489 68.1429 99.6477C68.0747 99.8466 68.0406 100.073 68.0406 100.327C68.0406 100.58 68.0747 100.807 68.1429 101.006C68.2129 101.205 68.3162 101.362 68.4525 101.477C68.5908 101.591 68.7612 101.648 68.9639 101.648ZM73.5008 102.571C73.1694 102.571 72.8692 102.486 72.6003 102.315C72.3332 102.143 72.1211 101.89 71.9639 101.557C71.8086 101.222 71.7309 100.811 71.7309 100.324C71.7309 99.8239 71.8114 99.4081 71.9724 99.0767C72.1334 98.7434 72.3474 98.4943 72.6145 98.3295C72.8834 98.1629 73.1779 98.0795 73.498 98.0795C73.7423 98.0795 73.9459 98.1212 74.1088 98.2045C74.2735 98.286 74.4061 98.3883 74.5065 98.5114C74.6088 98.6326 74.6864 98.7519 74.7395 98.8693H74.7764V96.6818H75.9838V102.5H74.7906V101.801H74.7395C74.6826 101.922 74.6021 102.043 74.498 102.162C74.3957 102.279 74.2622 102.377 74.0974 102.455C73.9345 102.532 73.7357 102.571 73.5008 102.571ZM73.8843 101.608C74.0794 101.608 74.2442 101.555 74.3787 101.449C74.515 101.341 74.6192 101.19 74.6912 100.997C74.765 100.804 74.802 100.578 74.802 100.318C74.802 100.059 74.766 99.8333 74.694 99.642C74.622 99.4508 74.5179 99.303 74.3815 99.1989C74.2451 99.0947 74.0794 99.0426 73.8843 99.0426C73.6855 99.0426 73.5179 99.0966 73.3815 99.2045C73.2451 99.3125 73.1419 99.4621 73.0718 99.6534C73.0018 99.8447 72.9667 100.066 72.9667 100.318C72.9667 100.572 73.0018 100.796 73.0718 100.991C73.1438 101.185 73.247 101.336 73.3815 101.446C73.5179 101.554 73.6855 101.608 73.8843 101.608ZM78.2231 102.582C77.9447 102.582 77.6966 102.534 77.4788 102.438C77.261 102.339 77.0887 102.194 76.9618 102.003C76.8368 101.81 76.7743 101.569 76.7743 101.281C76.7743 101.039 76.8188 100.835 76.9078 100.67C76.9968 100.506 77.118 100.373 77.2714 100.273C77.4248 100.172 77.5991 100.097 77.7941 100.045C77.9911 99.9943 78.1976 99.9583 78.4135 99.9375C78.6673 99.911 78.8718 99.8864 79.0271 99.8636C79.1824 99.839 79.2951 99.803 79.3652 99.7557C79.4352 99.7083 79.4703 99.6383 79.4703 99.5455V99.5284C79.4703 99.3485 79.4135 99.2093 79.2998 99.1108C79.1881 99.0123 79.029 98.9631 78.8226 98.9631C78.6048 98.9631 78.4315 99.0114 78.3027 99.108C78.1739 99.2027 78.0887 99.322 78.047 99.4659L76.9277 99.375C76.9845 99.1098 77.0962 98.8807 77.2629 98.6875C77.4296 98.4924 77.6445 98.3428 77.9078 98.2386C78.1729 98.1326 78.4798 98.0795 78.8282 98.0795C79.0707 98.0795 79.3027 98.108 79.5243 98.1648C79.7477 98.2216 79.9457 98.3097 80.118 98.429C80.2923 98.5483 80.4296 98.7017 80.5299 98.8892C80.6303 99.0748 80.6805 99.2973 80.6805 99.5568V102.5H79.5328V101.895H79.4987C79.4286 102.031 79.3349 102.152 79.2174 102.256C79.1 102.358 78.9589 102.438 78.7941 102.497C78.6294 102.554 78.439 102.582 78.2231 102.582ZM78.5697 101.747C78.7477 101.747 78.9049 101.712 79.0413 101.642C79.1777 101.57 79.2847 101.473 79.3623 101.352C79.44 101.231 79.4788 101.094 79.4788 100.94V100.477C79.4409 100.502 79.3888 100.525 79.3226 100.545C79.2582 100.564 79.1852 100.582 79.1038 100.599C79.0224 100.615 78.9409 100.629 78.8595 100.642C78.778 100.653 78.7042 100.664 78.6379 100.673C78.4958 100.694 78.3718 100.727 78.2657 100.773C78.1597 100.818 78.0773 100.88 78.0186 100.957C77.9599 101.033 77.9305 101.128 77.9305 101.241C77.9305 101.406 77.9902 101.532 78.1095 101.619C78.2307 101.705 78.3841 101.747 78.5697 101.747ZM82.2103 104.136C82.0569 104.136 81.913 104.124 81.7785 104.099C81.6459 104.077 81.5361 104.047 81.449 104.011L81.7217 103.108C81.8637 103.152 81.9916 103.175 82.1052 103.179C82.2208 103.183 82.3202 103.156 82.4035 103.099C82.4887 103.043 82.5579 102.946 82.6109 102.81L82.6819 102.625L81.1166 98.1364H82.3893L83.2927 101.341H83.3382L84.2501 98.1364H85.5314L83.8353 102.972C83.7539 103.206 83.6431 103.411 83.503 103.585C83.3647 103.761 83.1895 103.897 82.9774 103.991C82.7653 104.088 82.5096 104.136 82.2103 104.136ZM87.4149 96.6818V97.2955C87.4149 97.4697 87.3808 97.6477 87.3126 97.8295C87.2463 98.0095 87.1573 98.1799 87.0456 98.3409C86.9338 98.5 86.8117 98.6354 86.6791 98.7472L86.145 98.4318C86.2397 98.2822 86.323 98.1165 86.395 97.9347C86.4689 97.7528 86.5058 97.5417 86.5058 97.3011V96.6818H87.4149ZM91.3048 99.3807L90.1968 99.4489C90.1779 99.3542 90.1372 99.2689 90.0747 99.1932C90.0122 99.1155 89.9298 99.054 89.8275 99.0085C89.7271 98.9612 89.6069 98.9375 89.4667 98.9375C89.2792 98.9375 89.1211 98.9773 88.9923 99.0568C88.8635 99.1345 88.7991 99.2386 88.7991 99.3693C88.7991 99.4735 88.8408 99.5616 88.9241 99.6335C89.0075 99.7055 89.1504 99.7633 89.3531 99.8068L90.1429 99.9659C90.5671 100.053 90.8834 100.193 91.0917 100.386C91.3001 100.58 91.4042 100.833 91.4042 101.148C91.4042 101.434 91.32 101.685 91.1514 101.901C90.9847 102.116 90.7556 102.285 90.4639 102.406C90.1741 102.526 89.8398 102.585 89.461 102.585C88.8834 102.585 88.4232 102.465 88.0804 102.224C87.7395 101.982 87.5396 101.652 87.4809 101.236L88.6713 101.173C88.7073 101.349 88.7944 101.484 88.9326 101.577C89.0709 101.668 89.248 101.713 89.4639 101.713C89.676 101.713 89.8465 101.672 89.9753 101.591C90.1059 101.508 90.1722 101.401 90.1741 101.27C90.1722 101.16 90.1258 101.07 90.0349 101C89.944 100.928 89.8039 100.873 89.6145 100.835L88.8588 100.685C88.4326 100.599 88.1154 100.452 87.9071 100.241C87.7006 100.031 87.5974 99.7633 87.5974 99.4375C87.5974 99.1572 87.6732 98.9157 87.8247 98.7131C87.9781 98.5104 88.1931 98.3542 88.4696 98.2443C88.748 98.1345 89.0737 98.0795 89.4468 98.0795C89.998 98.0795 90.4317 98.196 90.748 98.429C91.0662 98.6619 91.2518 98.9792 91.3048 99.3807ZM96.3389 98.1364V99.0455H93.711V98.1364H96.3389ZM94.3076 97.0909H95.5179V101.159C95.5179 101.271 95.5349 101.358 95.569 101.42C95.6031 101.481 95.6504 101.524 95.711 101.548C95.7735 101.573 95.8455 101.585 95.927 101.585C95.9838 101.585 96.0406 101.58 96.0974 101.571C96.1542 101.56 96.1978 101.551 96.2281 101.545L96.4184 102.446C96.3578 102.465 96.2726 102.487 96.1628 102.511C96.0529 102.538 95.9194 102.554 95.7622 102.56C95.4705 102.571 95.2148 102.532 94.9951 102.443C94.7773 102.354 94.6078 102.216 94.4866 102.028C94.3654 101.841 94.3057 101.604 94.3076 101.318V97.0909ZM98.3716 102.582C98.0932 102.582 97.845 102.534 97.6272 102.438C97.4094 102.339 97.2371 102.194 97.1102 102.003C96.9852 101.81 96.9227 101.569 96.9227 101.281C96.9227 101.039 96.9672 100.835 97.0562 100.67C97.1452 100.506 97.2664 100.373 97.4199 100.273C97.5733 100.172 97.7475 100.097 97.9426 100.045C98.1396 99.9943 98.346 99.9583 98.5619 99.9375C98.8157 99.911 99.0202 99.8864 99.1755 99.8636C99.3308 99.839 99.4435 99.803 99.5136 99.7557C99.5837 99.7083 99.6187 99.6383 99.6187 99.5455V99.5284C99.6187 99.3485 99.5619 99.2093 99.4483 99.1108C99.3365 99.0123 99.1774 98.9631 98.971 98.9631C98.7532 98.9631 98.5799 99.0114 98.4511 99.108C98.3223 99.2027 98.2371 99.322 98.1954 99.4659L97.0761 99.375C97.1329 99.1098 97.2447 98.8807 97.4113 98.6875C97.578 98.4924 97.793 98.3428 98.0562 98.2386C98.3214 98.1326 98.6282 98.0795 98.9767 98.0795C99.2191 98.0795 99.4511 98.108 99.6727 98.1648C99.8962 98.2216 100.094 98.3097 100.266 98.429C100.441 98.5483 100.578 98.7017 100.678 98.8892C100.779 99.0748 100.829 99.2973 100.829 99.5568V102.5H99.6812V101.895H99.6471C99.5771 102.031 99.4833 102.152 99.3659 102.256C99.2485 102.358 99.1074 102.438 98.9426 102.497C98.7778 102.554 98.5875 102.582 98.3716 102.582ZM98.7182 101.747C98.8962 101.747 99.0534 101.712 99.1897 101.642C99.3261 101.57 99.4331 101.473 99.5108 101.352C99.5884 101.231 99.6272 101.094 99.6272 100.94V100.477C99.5894 100.502 99.5373 100.525 99.471 100.545C99.4066 100.564 99.3337 100.582 99.2522 100.599C99.1708 100.615 99.0894 100.629 99.0079 100.642C98.9265 100.653 98.8526 100.664 98.7863 100.673C98.6443 100.694 98.5202 100.727 98.4142 100.773C98.3081 100.818 98.2257 100.88 98.167 100.957C98.1083 101.033 98.0789 101.128 98.0789 101.241C98.0789 101.406 98.1386 101.532 98.2579 101.619C98.3791 101.705 98.5325 101.747 98.7182 101.747ZM105.399 99.3807L104.291 99.4489C104.272 99.3542 104.231 99.2689 104.168 99.1932C104.106 99.1155 104.024 99.054 103.921 99.0085C103.821 98.9612 103.701 98.9375 103.56 98.9375C103.373 98.9375 103.215 98.9773 103.086 99.0568C102.957 99.1345 102.893 99.2386 102.893 99.3693C102.893 99.4735 102.935 99.5616 103.018 99.6335C103.101 99.7055 103.244 99.7633 103.447 99.8068L104.237 99.9659C104.661 100.053 104.977 100.193 105.185 100.386C105.394 100.58 105.498 100.833 105.498 101.148C105.498 101.434 105.414 101.685 105.245 101.901C105.078 102.116 104.849 102.285 104.558 102.406C104.268 102.526 103.934 102.585 103.555 102.585C102.977 102.585 102.517 102.465 102.174 102.224C101.833 101.982 101.633 101.652 101.575 101.236L102.765 101.173C102.801 101.349 102.888 101.484 103.026 101.577C103.165 101.668 103.342 101.713 103.558 101.713C103.77 101.713 103.94 101.672 104.069 101.591C104.2 101.508 104.266 101.401 104.268 101.27C104.266 101.16 104.22 101.07 104.129 101C104.038 100.928 103.898 100.873 103.708 100.835L102.953 100.685C102.526 100.599 102.209 100.452 102.001 100.241C101.794 100.031 101.691 99.7633 101.691 99.4375C101.691 99.1572 101.767 98.9157 101.918 98.7131C102.072 98.5104 102.287 98.3542 102.563 98.2443C102.842 98.1345 103.167 98.0795 103.541 98.0795C104.092 98.0795 104.525 98.196 104.842 98.429C105.16 98.6619 105.346 98.9792 105.399 99.3807ZM107.357 101.244L107.359 99.7926H107.536L108.933 98.1364H110.323L108.445 100.33H108.158L107.357 101.244ZM106.26 102.5V96.6818H107.47V102.5H106.26ZM108.987 102.5L107.703 100.599L108.51 99.7443L110.405 102.5H108.987ZM56.3197 112.591C55.9106 112.591 55.5583 112.494 55.2629 112.301C54.9674 112.108 54.7402 111.842 54.5811 111.503C54.422 111.164 54.3424 110.777 54.3424 110.341C54.3424 109.898 54.4239 109.507 54.5868 109.168C54.7515 108.827 54.9807 108.561 55.2743 108.369C55.5697 108.176 55.9144 108.08 56.3083 108.08C56.6152 108.08 56.8917 108.136 57.1379 108.25C57.3841 108.364 57.5858 108.523 57.743 108.727C57.9002 108.932 57.9977 109.17 58.0356 109.443H57.3652C57.314 109.244 57.2004 109.068 57.0243 108.915C56.85 108.759 56.6152 108.682 56.3197 108.682C56.0583 108.682 55.8292 108.75 55.6322 108.886C55.4371 109.021 55.2847 109.211 55.1748 109.457C55.0669 109.702 55.0129 109.989 55.0129 110.318C55.0129 110.655 55.0659 110.949 55.172 111.199C55.2799 111.449 55.4315 111.643 55.6265 111.781C55.8235 111.92 56.0546 111.989 56.3197 111.989C56.494 111.989 56.6521 111.958 56.7941 111.898C56.9362 111.837 57.0565 111.75 57.1549 111.636C57.2534 111.523 57.3235 111.386 57.3652 111.227H58.0356C57.9977 111.485 57.904 111.717 57.7544 111.923C57.6066 112.128 57.4106 112.291 57.1663 112.412C56.9239 112.531 56.6417 112.591 56.3197 112.591ZM60.7885 112.591C60.3945 112.591 60.0489 112.497 59.7515 112.31C59.4561 112.122 59.225 111.86 59.0583 111.523C58.8936 111.186 58.8112 110.792 58.8112 110.341C58.8112 109.886 58.8936 109.49 59.0583 109.151C59.225 108.812 59.4561 108.548 59.7515 108.361C60.0489 108.173 60.3945 108.08 60.7885 108.08C61.1824 108.08 61.5271 108.173 61.8226 108.361C62.1199 108.548 62.351 108.812 62.5157 109.151C62.6824 109.49 62.7657 109.886 62.7657 110.341C62.7657 110.792 62.6824 111.186 62.5157 111.523C62.351 111.86 62.1199 112.122 61.8226 112.31C61.5271 112.497 61.1824 112.591 60.7885 112.591ZM60.7885 111.989C61.0877 111.989 61.3339 111.912 61.5271 111.759C61.7203 111.605 61.8633 111.403 61.9561 111.153C62.0489 110.903 62.0953 110.633 62.0953 110.341C62.0953 110.049 62.0489 109.777 61.9561 109.526C61.8633 109.274 61.7203 109.07 61.5271 108.915C61.3339 108.759 61.0877 108.682 60.7885 108.682C60.4892 108.682 60.243 108.759 60.0498 108.915C59.8566 109.07 59.7137 109.274 59.6208 109.526C59.528 109.777 59.4816 110.049 59.4816 110.341C59.4816 110.633 59.528 110.903 59.6208 111.153C59.7137 111.403 59.8566 111.605 60.0498 111.759C60.243 111.912 60.4892 111.989 60.7885 111.989ZM63.7892 112.5V108.136H64.4369V108.818H64.4937C64.5846 108.585 64.7314 108.404 64.9341 108.276C65.1367 108.145 65.3801 108.08 65.6642 108.08C65.9521 108.08 66.1916 108.145 66.3829 108.276C66.5761 108.404 66.7267 108.585 66.8346 108.818H66.8801C66.9918 108.593 67.1594 108.414 67.3829 108.281C67.6064 108.147 67.8744 108.08 68.1869 108.08C68.5771 108.08 68.8962 108.202 69.1443 108.446C69.3924 108.688 69.5164 109.066 69.5164 109.58V112.5H68.846V109.58C68.846 109.258 68.7579 109.027 68.5818 108.889C68.4057 108.751 68.1983 108.682 67.9596 108.682C67.6528 108.682 67.4151 108.775 67.2466 108.96C67.078 109.144 66.9937 109.377 66.9937 109.659V112.5H66.3119V109.511C66.3119 109.263 66.2314 109.063 66.0704 108.912C65.9094 108.759 65.7021 108.682 65.4483 108.682C65.274 108.682 65.1111 108.728 64.9596 108.821C64.81 108.914 64.6888 109.043 64.596 109.207C64.5051 109.37 64.4596 109.559 64.4596 109.773V112.5H63.7892ZM70.7423 114.136V108.136H71.39V108.83H71.4696C71.5188 108.754 71.587 108.657 71.6741 108.54C71.7631 108.42 71.89 108.314 72.0548 108.222C72.2215 108.127 72.4468 108.08 72.7309 108.08C73.0984 108.08 73.4222 108.171 73.7025 108.355C73.9828 108.539 74.2016 108.799 74.3588 109.136C74.516 109.473 74.5946 109.871 74.5946 110.33C74.5946 110.792 74.516 111.192 74.3588 111.531C74.2016 111.868 73.9838 112.13 73.7054 112.315C73.427 112.499 73.1059 112.591 72.7423 112.591C72.462 112.591 72.2376 112.545 72.069 112.452C71.9004 112.357 71.7707 112.25 71.6798 112.131C71.5889 112.009 71.5188 111.909 71.4696 111.83H71.4128V114.136H70.7423ZM71.4014 110.318C71.4014 110.648 71.4497 110.938 71.5463 111.19C71.6429 111.44 71.784 111.636 71.9696 111.778C72.1552 111.919 72.3825 111.989 72.6514 111.989C72.9317 111.989 73.1656 111.915 73.3531 111.767C73.5425 111.617 73.6845 111.417 73.7792 111.165C73.8758 110.911 73.9241 110.629 73.9241 110.318C73.9241 110.011 73.8768 109.735 73.7821 109.489C73.6893 109.241 73.5482 109.045 73.3588 108.901C73.1713 108.755 72.9355 108.682 72.6514 108.682C72.3787 108.682 72.1495 108.751 71.9639 108.889C71.7783 109.026 71.6381 109.217 71.5434 109.463C71.4487 109.707 71.4014 109.992 71.4014 110.318ZM76.2878 106.682V112.5H75.6173V106.682H76.2878ZM79.3453 112.591C78.9248 112.591 78.5621 112.498 78.2572 112.312C77.9542 112.125 77.7203 111.864 77.5555 111.528C77.3926 111.191 77.3112 110.799 77.3112 110.352C77.3112 109.905 77.3926 109.511 77.5555 109.17C77.7203 108.828 77.9494 108.561 78.243 108.369C78.5385 108.176 78.8832 108.08 79.2771 108.08C79.5044 108.08 79.7288 108.117 79.9504 108.193C80.172 108.269 80.3737 108.392 80.5555 108.562C80.7373 108.731 80.8822 108.955 80.9902 109.233C81.0981 109.511 81.1521 109.854 81.1521 110.261V110.545H77.7885V109.966H80.4703C80.4703 109.72 80.421 109.5 80.3226 109.307C80.226 109.114 80.0877 108.961 79.9078 108.849C79.7298 108.738 79.5195 108.682 79.2771 108.682C79.0101 108.682 78.779 108.748 78.5839 108.881C78.3907 109.011 78.2421 109.182 78.1379 109.392C78.0337 109.602 77.9816 109.828 77.9816 110.068V110.455C77.9816 110.784 78.0385 111.063 78.1521 111.293C78.2676 111.52 78.4277 111.693 78.6322 111.812C78.8368 111.93 79.0744 111.989 79.3453 111.989C79.5214 111.989 79.6805 111.964 79.8226 111.915C79.9665 111.864 80.0905 111.788 80.1947 111.688C80.2989 111.585 80.3794 111.458 80.4362 111.307L81.0839 111.489C81.0157 111.708 80.9012 111.902 80.7402 112.068C80.5792 112.233 80.3803 112.362 80.1436 112.455C79.9068 112.545 79.6407 112.591 79.3453 112.591ZM84.0697 108.136V108.705H81.8083V108.136H84.0697ZM82.4674 107.091H83.1379V111.25C83.1379 111.439 83.1654 111.581 83.2203 111.676C83.2771 111.769 83.3491 111.831 83.4362 111.864C83.5252 111.894 83.619 111.909 83.7174 111.909C83.7913 111.909 83.8519 111.905 83.8993 111.898C83.9466 111.888 83.9845 111.881 84.0129 111.875L84.1493 112.477C84.1038 112.494 84.0404 112.511 83.9589 112.528C83.8775 112.547 83.7743 112.557 83.6493 112.557C83.4599 112.557 83.2743 112.516 83.0924 112.435C82.9125 112.353 82.7629 112.229 82.6436 112.062C82.5262 111.896 82.4674 111.686 82.4674 111.432V107.091ZM86.8609 112.591C86.4405 112.591 86.0778 112.498 85.7728 112.312C85.4698 112.125 85.2359 111.864 85.0711 111.528C84.9083 111.191 84.8268 110.799 84.8268 110.352C84.8268 109.905 84.9083 109.511 85.0711 109.17C85.2359 108.828 85.4651 108.561 85.7586 108.369C86.0541 108.176 86.3988 108.08 86.7927 108.08C87.02 108.08 87.2444 108.117 87.466 108.193C87.6876 108.269 87.8893 108.392 88.0711 108.562C88.253 108.731 88.3978 108.955 88.5058 109.233C88.6137 109.511 88.6677 109.854 88.6677 110.261V110.545H85.3041V109.966H87.9859C87.9859 109.72 87.9367 109.5 87.8382 109.307C87.7416 109.114 87.6033 108.961 87.4234 108.849C87.2454 108.738 87.0351 108.682 86.7927 108.682C86.5257 108.682 86.2946 108.748 86.0995 108.881C85.9064 109.011 85.7577 109.182 85.6535 109.392C85.5494 109.602 85.4973 109.828 85.4973 110.068V110.455C85.4973 110.784 85.5541 111.063 85.6677 111.293C85.7833 111.52 85.9433 111.693 86.1478 111.812C86.3524 111.93 86.5901 111.989 86.8609 111.989C87.037 111.989 87.1961 111.964 87.3382 111.915C87.4821 111.864 87.6062 111.788 87.7103 111.688C87.8145 111.585 87.895 111.458 87.9518 111.307L88.5995 111.489C88.5314 111.708 88.4168 111.902 88.2558 112.068C88.0948 112.233 87.8959 112.362 87.6592 112.455C87.4225 112.545 87.1564 112.591 86.8609 112.591ZM91.3353 112.591C90.9717 112.591 90.6507 112.499 90.3723 112.315C90.0939 112.13 89.8761 111.868 89.7189 111.531C89.5617 111.192 89.4831 110.792 89.4831 110.33C89.4831 109.871 89.5617 109.473 89.7189 109.136C89.8761 108.799 90.0948 108.539 90.3751 108.355C90.6554 108.171 90.9793 108.08 91.3467 108.08C91.6308 108.08 91.8552 108.127 92.02 108.222C92.1867 108.314 92.3136 108.42 92.4007 108.54C92.4897 108.657 92.5588 108.754 92.6081 108.83H92.6649V106.682H93.3353V112.5H92.6876V111.83H92.6081C92.5588 111.909 92.4887 112.009 92.3978 112.131C92.3069 112.25 92.1772 112.357 92.0086 112.452C91.8401 112.545 91.6156 112.591 91.3353 112.591ZM91.4262 111.989C91.6952 111.989 91.9225 111.919 92.1081 111.778C92.2937 111.636 92.4348 111.44 92.5314 111.19C92.628 110.938 92.6762 110.648 92.6762 110.318C92.6762 109.992 92.6289 109.707 92.5342 109.463C92.4395 109.217 92.2994 109.026 92.1137 108.889C91.9281 108.751 91.699 108.682 91.4262 108.682C91.1422 108.682 90.9054 108.755 90.716 108.901C90.5285 109.045 90.3874 109.241 90.2927 109.489C90.1999 109.735 90.1535 110.011 90.1535 110.318C90.1535 110.629 90.2009 110.911 90.2956 111.165C90.3922 111.417 90.5342 111.617 90.7217 111.767C90.9111 111.915 91.1459 111.989 91.4262 111.989Z" fill="black"/>
<defs>
<filter id="filter0_d_14_344" x="0" y="0" width="172" height="172" filterUnits="userSpaceOnUse" color-interpolation-filters="sRGB">
<feFlood flood-opacity="0" result="BackgroundImageFix"/>
<feColorMatrix in="SourceAlpha" type="matrix" values="0 0 0 0 0 0 0 0 0 0 0 0 0 0 0 0 0 0 127 0" result="hardAlpha"/>
<feOffset/>
<feGaussianBlur stdDeviation="3.5"/>
<feComposite in2="hardAlpha" operator="out"/>
<feColorMatrix type="matrix" values="0 0 0 0 0 0 0 0 0 0 0 0 0 0 0 0 0 0 0.25 0"/>
<feBlend mode="normal" in2="BackgroundImageFix" result="effect1_dropShadow_14_344"/>
<feBlend mode="normal" in="SourceGraphic" in2="effect1_dropShadow_14_344" result="shape"/>
</filter>
<filter id="filter1_d_14_344" x="79" y="0.358643" width="93" height="153.366" filterUnits="userSpaceOnUse" color-interpolation-filters="sRGB">
<feFlood flood-opacity="0" result="BackgroundImageFix"/>
<feColorMatrix in="SourceAlpha" type="matrix" values="0 0 0 0 0 0 0 0 0 0 0 0 0 0 0 0 0 0 127 0" result="hardAlpha"/>
<feOffset/>
<feGaussianBlur stdDeviation="3.5"/>
<feComposite in2="hardAlpha" operator="out"/>
<feColorMatrix type="matrix" values="0 0 0 0 0 0 0 0 0 0 0 0 0 0 0 0 0 0 0.25 0"/>
<feBlend mode="normal" in2="BackgroundImageFix" result="effect1_dropShadow_14_344"/>
<feBlend mode="normal" in="SourceGraphic" in2="effect1_dropShadow_14_344" result="shape"/>
</filter>
</defs>
</svg>
