<svg width="172" height="172" viewBox="0 0 172 172" fill="none" xmlns="http://www.w3.org/2000/svg">
<path opacity="0.5" d="M85.5 20.5C121.675 20.5 151 49.8253 151 86C151 122.175 121.675 151.5 85.5 151.5C49.3253 151.5 20 122.175 20 86C20 49.8253 49.3253 20.5 85.5 20.5ZM85.5 138.4C114.44 138.4 137.9 114.94 137.9 86C137.9 57.0603 114.44 33.6 85.5 33.6C56.5603 33.6 33.1 57.0603 33.1 86C33.1 114.94 56.5603 138.4 85.5 138.4Z" fill="#FBB907"/>
<g opacity="0.5" filter="url(#filter0_d_14_334)">
<path d="M86 7C129.63 6.99999 165 42.3695 165 86C165 129.63 129.63 165 86 165C42.3695 165 7 129.63 7 86C6.99999 42.3695 42.3695 7 86 7ZM86 149.2C120.904 149.2 149.2 120.904 149.2 86C149.2 51.0956 120.904 22.8 86 22.8C51.0956 22.8 22.8 51.0956 22.8 86C22.8 120.904 51.0956 149.2 86 149.2Z" fill="#FFD155"/>
</g>
<path d="M85.5 27.05C85.5 23.4325 88.4398 20.4661 92.0392 20.8272C101.137 21.74 109.968 24.5505 117.953 29.1046C127.839 34.7436 136.085 42.8614 141.879 52.6578C147.672 62.4542 150.813 73.5912 150.992 84.9712C151.171 96.3511 148.381 107.581 142.898 117.555C137.415 127.528 129.428 135.901 119.724 141.848C110.019 147.795 98.9332 151.11 87.5574 151.468C76.1817 151.825 64.9091 149.212 54.8506 143.887C46.7273 139.586 39.6222 133.635 33.9767 126.443C31.7431 123.597 32.6725 119.525 35.7269 117.587V117.587C38.7812 115.649 42.799 116.585 45.103 119.374C49.4797 124.672 54.8699 129.074 60.9805 132.309C69.0273 136.57 78.0453 138.66 87.1459 138.374C96.2465 138.088 105.116 135.436 112.879 130.678C120.642 125.921 127.032 119.223 131.418 111.244C135.805 103.265 138.037 94.2809 137.894 85.1769C137.751 76.073 135.238 67.1634 130.603 59.3262C125.968 51.4891 119.371 44.9949 111.462 40.4837C105.456 37.058 98.8511 34.8656 92.0331 34.0088C88.4438 33.5578 85.5 30.6675 85.5 27.05V27.05Z" fill="#FBB907"/>
<g filter="url(#filter1_d_14_334)">
<path d="M86 14.9C86 10.5369 89.5457 6.95907 93.887 7.39465C104.86 8.49562 115.511 11.8853 125.141 17.3781C137.065 24.1793 147.011 33.9702 153.999 45.7857C160.986 57.6013 164.775 71.0337 164.99 84.7591C165.206 98.4846 161.841 112.029 155.228 124.059C148.615 136.088 138.982 146.186 127.277 153.359C115.573 160.531 102.202 164.53 88.4815 164.961C74.7611 165.392 61.1651 162.241 49.0336 155.817C39.2359 150.63 30.6665 143.453 23.8574 134.778C21.1634 131.346 22.2844 126.435 25.9683 124.097V124.097C29.6521 121.759 34.498 122.889 37.2769 126.253C42.5556 132.642 49.0569 137.952 56.4268 141.854C66.1321 146.993 77.0089 149.514 87.9852 149.169C98.9615 148.824 109.658 145.625 119.022 139.887C128.385 134.149 136.092 126.07 141.383 116.447C146.673 106.823 149.365 95.9877 149.192 85.0073C149.02 74.0269 145.989 63.281 140.399 53.8286C134.809 44.3761 126.852 36.5435 117.313 31.1025C110.069 26.9707 102.103 24.3264 93.8796 23.2931C89.5506 22.7491 86 19.263 86 14.9V14.9Z" fill="#FFD155"/>
</g>
<path d="M63.2281 87.8008C62.0964 87.7937 61.0041 87.6039 59.9512 87.2314C58.9055 86.859 57.9672 86.2537 57.1364 85.4157C56.3055 84.5777 55.6466 83.4675 55.1595 82.0851C54.6796 80.7028 54.4397 79.0052 54.4397 76.9926C54.4468 75.1446 54.6581 73.4937 55.0736 72.0397C55.4961 70.5785 56.0978 69.3394 56.8785 68.3223C57.6664 67.3052 58.6083 66.5317 59.7041 66.0017C60.8 65.4645 62.0284 65.1959 63.3893 65.1959C64.8576 65.1959 66.154 65.4824 67.2785 66.0554C68.403 66.6212 69.3055 67.3912 69.986 68.3653C70.6736 69.3394 71.089 70.4317 71.2322 71.6421H66.6446C66.4656 70.8758 66.0895 70.2741 65.5165 69.8372C64.9435 69.4003 64.2344 69.1818 63.3893 69.1818C61.9567 69.1818 60.868 69.805 60.1231 71.0512C59.3854 72.2975 59.0094 73.9915 58.995 76.1331H59.1455C59.4749 75.4813 59.919 74.9262 60.4777 74.4678C61.0435 74.0022 61.6846 73.6477 62.4008 73.4041C63.1242 73.1534 63.8871 73.0281 64.6893 73.0281C65.9928 73.0281 67.1532 73.3361 68.1702 73.9521C69.1873 74.5609 69.9895 75.3989 70.5769 76.4661C71.1642 77.5333 71.4579 78.7545 71.4579 80.1298C71.4579 81.6196 71.1105 82.9446 70.4157 84.105C69.7281 85.2653 68.7647 86.1749 67.5256 86.8339C66.2937 87.4857 64.8612 87.808 63.2281 87.8008ZM63.2066 84.1479C63.9229 84.1479 64.5639 83.976 65.1298 83.6322C65.6956 83.2884 66.1397 82.8229 66.462 82.2355C66.7843 81.6482 66.9455 80.9893 66.9455 80.2587C66.9455 79.5281 66.7843 78.8727 66.462 78.2926C66.1468 77.7124 65.7099 77.2504 65.1512 76.9066C64.5926 76.5628 63.9551 76.3909 63.2388 76.3909C62.7017 76.3909 62.2039 76.4912 61.7455 76.6917C61.2942 76.8923 60.8967 77.1716 60.5529 77.5298C60.2163 77.8879 59.9512 78.3033 59.7579 78.776C59.5645 79.2416 59.4678 79.7394 59.4678 80.2694C59.4678 80.9785 59.6289 81.6267 59.9512 82.214C60.2807 82.8014 60.7248 83.2705 61.2835 83.6215C61.8493 83.9725 62.4904 84.1479 63.2066 84.1479ZM83.2008 87.8008C82.0691 87.7937 80.9769 87.6039 79.924 87.2314C78.8782 86.859 77.9399 86.2537 77.1091 85.4157C76.2782 84.5777 75.6193 83.4675 75.1322 82.0851C74.6523 80.7028 74.4124 79.0052 74.4124 76.9926C74.4196 75.1446 74.6309 73.4937 75.0463 72.0397C75.4689 70.5785 76.0705 69.3394 76.8512 68.3223C77.6391 67.3052 78.581 66.5317 79.6769 66.0017C80.7727 65.4645 82.0011 65.1959 83.362 65.1959C84.8303 65.1959 86.1267 65.4824 87.2512 66.0554C88.3758 66.6212 89.2782 67.3912 89.9587 68.3653C90.6463 69.3394 91.0617 70.4317 91.205 71.6421H86.6174C86.4383 70.8758 86.0623 70.2741 85.4893 69.8372C84.9163 69.4003 84.2072 69.1818 83.362 69.1818C81.9295 69.1818 80.8408 69.805 80.0959 71.0512C79.3581 72.2975 78.9821 73.9915 78.9678 76.1331H79.1182C79.4477 75.4813 79.8917 74.9262 80.4504 74.4678C81.0163 74.0022 81.6573 73.6477 82.3736 73.4041C83.097 73.1534 83.8598 73.0281 84.662 73.0281C85.9656 73.0281 87.1259 73.3361 88.143 73.9521C89.1601 74.5609 89.9623 75.3989 90.5496 76.4661C91.1369 77.5333 91.4306 78.7545 91.4306 80.1298C91.4306 81.6196 91.0832 82.9446 90.3884 84.105C89.7008 85.2653 88.7375 86.1749 87.4983 86.8339C86.2664 87.4857 84.8339 87.808 83.2008 87.8008ZM83.1793 84.1479C83.8956 84.1479 84.5366 83.976 85.1025 83.6322C85.6683 83.2884 86.1124 82.8229 86.4347 82.2355C86.757 81.6482 86.9182 80.9893 86.9182 80.2587C86.9182 79.5281 86.757 78.8727 86.4347 78.2926C86.1196 77.7124 85.6826 77.2504 85.124 76.9066C84.5653 76.5628 83.9278 76.3909 83.2116 76.3909C82.6744 76.3909 82.1766 76.4912 81.7182 76.6917C81.2669 76.8923 80.8694 77.1716 80.5256 77.5298C80.189 77.8879 79.924 78.3033 79.7306 78.776C79.5372 79.2416 79.4405 79.7394 79.4405 80.2694C79.4405 80.9785 79.6017 81.6267 79.924 82.214C80.2534 82.8014 80.6975 83.2705 81.2562 83.6215C81.822 83.9725 82.4631 84.1479 83.1793 84.1479ZM106.773 83.3744V82.214C106.773 81.3331 106.959 80.5237 107.331 79.786C107.711 79.041 108.259 78.4466 108.975 78.0025C109.699 77.5512 110.58 77.3256 111.618 77.3256C112.671 77.3256 113.556 77.5477 114.272 77.9917C114.995 78.4358 115.54 79.0303 115.905 79.7752C116.277 80.5129 116.464 81.3259 116.464 82.214V83.3744C116.464 84.2554 116.277 85.0683 115.905 85.8132C115.533 86.551 114.985 87.1419 114.261 87.586C113.538 88.0372 112.657 88.2628 111.618 88.2628C110.565 88.2628 109.681 88.0372 108.964 87.586C108.248 87.1419 107.704 86.551 107.331 85.8132C106.959 85.0683 106.773 84.2554 106.773 83.3744ZM109.899 82.214V83.3744C109.899 83.8829 110.021 84.3628 110.264 84.814C110.515 85.2653 110.966 85.4909 111.618 85.4909C112.27 85.4909 112.714 85.2689 112.95 84.8248C113.194 84.3807 113.316 83.8972 113.316 83.3744V82.214C113.316 81.6912 113.201 81.2041 112.972 80.7529C112.743 80.3017 112.291 80.076 111.618 80.076C110.974 80.076 110.526 80.3017 110.275 80.7529C110.025 81.2041 109.899 81.6912 109.899 82.214ZM95.481 70.7826V69.6223C95.481 68.7342 95.6708 67.9212 96.0504 67.1835C96.43 66.4386 96.978 65.8441 97.6942 65.4C98.4176 64.9559 99.2915 64.7339 100.316 64.7339C101.376 64.7339 102.264 64.9559 102.98 65.4C103.696 65.8441 104.241 66.4386 104.613 67.1835C104.986 67.9212 105.172 68.7342 105.172 69.6223V70.7826C105.172 71.6708 104.982 72.4837 104.602 73.2215C104.23 73.9592 103.682 74.5501 102.959 74.9942C102.242 75.4311 101.361 75.6496 100.316 75.6496C99.27 75.6496 98.3854 75.4275 97.662 74.9835C96.9457 74.5322 96.4014 73.9413 96.0289 73.2107C95.6636 72.473 95.481 71.6636 95.481 70.7826ZM98.6289 69.6223V70.7826C98.6289 71.3055 98.7507 71.789 98.9942 72.2331C99.2449 72.6771 99.6854 72.8992 100.316 72.8992C100.975 72.8992 101.422 72.6771 101.659 72.2331C101.902 71.789 102.024 71.3055 102.024 70.7826V69.6223C102.024 69.0994 101.909 68.6124 101.68 68.1612C101.451 67.7099 100.996 67.4843 100.316 67.4843C99.6782 67.4843 99.2377 67.7135 98.9942 68.1719C98.7507 68.6303 98.6289 69.1138 98.6289 69.6223ZM96.8992 87.5L112.026 65.4967H114.841L99.714 87.5H96.8992Z" fill="black"/>
<path d="M55.3864 102.591C54.9924 102.591 54.6468 102.497 54.3494 102.31C54.054 102.122 53.8229 101.86 53.6562 101.523C53.4915 101.186 53.4091 100.792 53.4091 100.341C53.4091 99.8864 53.4915 99.4896 53.6562 99.1506C53.8229 98.8116 54.054 98.5483 54.3494 98.3608C54.6468 98.1733 54.9924 98.0795 55.3864 98.0795C55.7803 98.0795 56.125 98.1733 56.4205 98.3608C56.7178 98.5483 56.9489 98.8116 57.1136 99.1506C57.2803 99.4896 57.3636 99.8864 57.3636 100.341C57.3636 100.792 57.2803 101.186 57.1136 101.523C56.9489 101.86 56.7178 102.122 56.4205 102.31C56.125 102.497 55.7803 102.591 55.3864 102.591ZM55.3864 101.989C55.6856 101.989 55.9318 101.912 56.125 101.759C56.3182 101.605 56.4612 101.403 56.554 101.153C56.6468 100.903 56.6932 100.633 56.6932 100.341C56.6932 100.049 56.6468 99.7775 56.554 99.5256C56.4612 99.2737 56.3182 99.0701 56.125 98.9148C55.9318 98.7595 55.6856 98.6818 55.3864 98.6818C55.0871 98.6818 54.8409 98.7595 54.6477 98.9148C54.4545 99.0701 54.3116 99.2737 54.2188 99.5256C54.1259 99.7775 54.0795 100.049 54.0795 100.341C54.0795 100.633 54.1259 100.903 54.2188 101.153C54.3116 101.403 54.4545 101.605 54.6477 101.759C54.8409 101.912 55.0871 101.989 55.3864 101.989ZM60.3303 98.1364V98.7045H57.978V98.1364H60.3303ZM58.6825 102.5V97.5341C58.6825 97.2841 58.7412 97.0758 58.8587 96.9091C58.9761 96.7424 59.1286 96.6174 59.3161 96.5341C59.5036 96.4508 59.7015 96.4091 59.9098 96.4091C60.0746 96.4091 60.209 96.4223 60.3132 96.4489C60.4174 96.4754 60.495 96.5 60.5462 96.5227L60.353 97.1023C60.3189 97.0909 60.2715 97.0767 60.2109 97.0597C60.1522 97.0426 60.0746 97.0341 59.978 97.0341C59.7564 97.0341 59.5964 97.09 59.4979 97.2017C59.4013 97.3134 59.353 97.4773 59.353 97.6932V102.5H58.6825ZM65.3374 98.1364V99.0455H62.6442V98.1364H65.3374ZM63.2607 102.5V97.821C63.2607 97.5047 63.3222 97.2424 63.4453 97.0341C63.5703 96.8258 63.7408 96.6695 63.9567 96.5653C64.1726 96.4612 64.4179 96.4091 64.6925 96.4091C64.8781 96.4091 65.0476 96.4233 65.201 96.4517C65.3563 96.4801 65.4718 96.5057 65.5476 96.5284L65.3317 97.4375C65.2843 97.4223 65.2256 97.4081 65.1555 97.3949C65.0874 97.3816 65.0173 97.375 64.9453 97.375C64.7673 97.375 64.6432 97.4167 64.5732 97.5C64.5031 97.5814 64.468 97.696 64.468 97.8438V102.5H63.2607ZM66.0767 102.5V98.1364H67.2869V102.5H66.0767ZM66.6847 97.5739C66.5047 97.5739 66.3504 97.5142 66.2216 97.3949C66.0947 97.2737 66.0312 97.1288 66.0312 96.9602C66.0312 96.7936 66.0947 96.6506 66.2216 96.5312C66.3504 96.41 66.5047 96.3494 66.6847 96.3494C66.8646 96.3494 67.018 96.41 67.1449 96.5312C67.2737 96.6506 67.3381 96.7936 67.3381 96.9602C67.3381 97.1288 67.2737 97.2737 67.1449 97.3949C67.018 97.5142 66.8646 97.5739 66.6847 97.5739ZM68.2564 102.5V98.1364H69.4297V98.8977H69.4751C69.5547 98.6269 69.6882 98.4223 69.8757 98.2841C70.0632 98.1439 70.2791 98.0739 70.5234 98.0739C70.584 98.0739 70.6494 98.0777 70.7195 98.0852C70.7895 98.0928 70.8511 98.1032 70.9041 98.1165V99.1903C70.8473 99.1733 70.7687 99.1581 70.6683 99.1449C70.5679 99.1316 70.4761 99.125 70.3928 99.125C70.2147 99.125 70.0556 99.1638 69.9155 99.2415C69.7772 99.3172 69.6674 99.4233 69.5859 99.5597C69.5064 99.696 69.4666 99.8532 69.4666 100.031V102.5H68.2564ZM75.1605 99.3807L74.0526 99.4489C74.0336 99.3542 73.9929 99.2689 73.9304 99.1932C73.8679 99.1155 73.7855 99.054 73.6832 99.0085C73.5829 98.9612 73.4626 98.9375 73.3224 98.9375C73.1349 98.9375 72.9768 98.9773 72.848 99.0568C72.7192 99.1345 72.6548 99.2386 72.6548 99.3693C72.6548 99.4735 72.6965 99.5616 72.7798 99.6335C72.8632 99.7055 73.0062 99.7633 73.2088 99.8068L73.9986 99.9659C74.4228 100.053 74.7391 100.193 74.9474 100.386C75.1558 100.58 75.2599 100.833 75.2599 101.148C75.2599 101.434 75.1757 101.685 75.0071 101.901C74.8404 102.116 74.6113 102.285 74.3196 102.406C74.0298 102.526 73.6955 102.585 73.3168 102.585C72.7391 102.585 72.2789 102.465 71.9361 102.224C71.5952 101.982 71.3954 101.652 71.3366 101.236L72.527 101.173C72.563 101.349 72.6501 101.484 72.7884 101.577C72.9266 101.668 73.1037 101.713 73.3196 101.713C73.5317 101.713 73.7022 101.672 73.831 101.591C73.9616 101.508 74.0279 101.401 74.0298 101.27C74.0279 101.16 73.9815 101.07 73.8906 101C73.7997 100.928 73.6596 100.873 73.4702 100.835L72.7145 100.685C72.2884 100.599 71.9711 100.452 71.7628 100.241C71.5563 100.031 71.4531 99.7633 71.4531 99.4375C71.4531 99.1572 71.5289 98.9157 71.6804 98.7131C71.8338 98.5104 72.0488 98.3542 72.3253 98.2443C72.6037 98.1345 72.9295 98.0795 73.3026 98.0795C73.8537 98.0795 74.2874 98.196 74.6037 98.429C74.9219 98.6619 75.1075 98.9792 75.1605 99.3807ZM78.343 98.1364V99.0455H75.7152V98.1364H78.343ZM76.3118 97.0909H77.522V101.159C77.522 101.271 77.5391 101.358 77.5732 101.42C77.6072 101.481 77.6546 101.524 77.7152 101.548C77.7777 101.573 77.8497 101.585 77.9311 101.585C77.9879 101.585 78.0447 101.58 78.1016 101.571C78.1584 101.56 78.2019 101.551 78.2322 101.545L78.4226 102.446C78.362 102.465 78.2768 102.487 78.1669 102.511C78.0571 102.538 77.9235 102.554 77.7663 102.56C77.4747 102.571 77.219 102.532 76.9993 102.443C76.7815 102.354 76.612 102.216 76.4908 102.028C76.3696 101.841 76.3099 101.604 76.3118 101.318V97.0909ZM82.1932 99.9773V102.5H80.983V96.6818H82.1591V98.9062H82.2102C82.3087 98.6487 82.4678 98.447 82.6875 98.3011C82.9072 98.1534 83.1828 98.0795 83.5142 98.0795C83.8172 98.0795 84.0814 98.1458 84.3068 98.2784C84.5341 98.4091 84.7102 98.5975 84.8352 98.8438C84.9621 99.0881 85.0246 99.3807 85.0227 99.7216V102.5H83.8125V99.9375C83.8144 99.6686 83.7462 99.4593 83.608 99.3097C83.4716 99.16 83.2803 99.0852 83.0341 99.0852C82.8693 99.0852 82.7235 99.1203 82.5966 99.1903C82.4716 99.2604 82.3731 99.3627 82.3011 99.4972C82.2311 99.6297 82.1951 99.7898 82.1932 99.9773ZM87.9467 102.585C87.5054 102.585 87.1238 102.491 86.8018 102.304C86.4818 102.115 86.2346 101.851 86.0604 101.514C85.8861 101.175 85.799 100.782 85.799 100.335C85.799 99.8845 85.8861 99.4905 86.0604 99.1534C86.2346 98.8144 86.4818 98.5511 86.8018 98.3636C87.1238 98.1742 87.5054 98.0795 87.9467 98.0795C88.388 98.0795 88.7687 98.1742 89.0888 98.3636C89.4107 98.5511 89.6589 98.8144 89.8331 99.1534C90.0073 99.4905 90.0945 99.8845 90.0945 100.335C90.0945 100.782 90.0073 101.175 89.8331 101.514C89.6589 101.851 89.4107 102.115 89.0888 102.304C88.7687 102.491 88.388 102.585 87.9467 102.585ZM87.9524 101.648C88.1532 101.648 88.3208 101.591 88.4553 101.477C88.5897 101.362 88.6911 101.205 88.7592 101.006C88.8293 100.807 88.8643 100.58 88.8643 100.327C88.8643 100.073 88.8293 99.8466 88.7592 99.6477C88.6911 99.4489 88.5897 99.2917 88.4553 99.1761C88.3208 99.0606 88.1532 99.0028 87.9524 99.0028C87.7498 99.0028 87.5793 99.0606 87.4411 99.1761C87.3047 99.2917 87.2015 99.4489 87.1314 99.6477C87.0632 99.8466 87.0291 100.073 87.0291 100.327C87.0291 100.58 87.0632 100.807 87.1314 101.006C87.2015 101.205 87.3047 101.362 87.4411 101.477C87.5793 101.591 87.7498 101.648 87.9524 101.648ZM93.6797 100.642V98.1364H94.8899V102.5H93.728V101.707H93.6825C93.584 101.963 93.4202 102.169 93.1911 102.324C92.9638 102.479 92.6863 102.557 92.3587 102.557C92.067 102.557 91.8104 102.491 91.5888 102.358C91.3672 102.225 91.1939 102.037 91.0689 101.793C90.9458 101.548 90.8833 101.256 90.8814 100.915V98.1364H92.0916V100.699C92.0935 100.956 92.1626 101.16 92.299 101.31C92.4354 101.459 92.6181 101.534 92.8473 101.534C92.9931 101.534 93.1295 101.501 93.2564 101.435C93.3833 101.366 93.4856 101.266 93.5632 101.134C93.6428 101.001 93.6816 100.837 93.6797 100.642ZM95.858 102.5V98.1364H97.0312V98.8977H97.0767C97.1563 98.6269 97.2898 98.4223 97.4773 98.2841C97.6648 98.1439 97.8807 98.0739 98.125 98.0739C98.1856 98.0739 98.2509 98.0777 98.321 98.0852C98.3911 98.0928 98.4527 98.1032 98.5057 98.1165V99.1903C98.4489 99.1733 98.3703 99.1581 98.2699 99.1449C98.1695 99.1316 98.0777 99.125 97.9943 99.125C97.8163 99.125 97.6572 99.1638 97.517 99.2415C97.3788 99.3172 97.2689 99.4233 97.1875 99.5597C97.108 99.696 97.0682 99.8532 97.0682 100.031V102.5H95.858ZM103.304 98.1364V99.0455H100.676V98.1364H103.304ZM101.273 97.0909H102.483V101.159C102.483 101.271 102.5 101.358 102.534 101.42C102.568 101.481 102.616 101.524 102.676 101.548C102.739 101.573 102.811 101.585 102.892 101.585C102.949 101.585 103.006 101.58 103.062 101.571C103.119 101.56 103.163 101.551 103.193 101.545L103.384 102.446C103.323 102.465 103.238 102.487 103.128 102.511C103.018 102.538 102.884 102.554 102.727 102.56C102.436 102.571 102.18 102.532 101.96 102.443C101.742 102.354 101.573 102.216 101.452 102.028C101.33 101.841 101.271 101.604 101.273 101.318V97.0909ZM105.337 102.582C105.058 102.582 104.81 102.534 104.592 102.438C104.375 102.339 104.202 102.194 104.075 102.003C103.95 101.81 103.888 101.569 103.888 101.281C103.888 101.039 103.932 100.835 104.021 100.67C104.11 100.506 104.232 100.373 104.385 100.273C104.538 100.172 104.713 100.097 104.908 100.045C105.105 99.9943 105.311 99.9583 105.527 99.9375C105.781 99.911 105.985 99.8864 106.141 99.8636C106.296 99.839 106.409 99.803 106.479 99.7557C106.549 99.7083 106.584 99.6383 106.584 99.5455V99.5284C106.584 99.3485 106.527 99.2093 106.413 99.1108C106.302 99.0123 106.143 98.9631 105.936 98.9631C105.718 98.9631 105.545 99.0114 105.416 99.108C105.287 99.2027 105.202 99.322 105.161 99.4659L104.041 99.375C104.098 99.1098 104.21 98.8807 104.376 98.6875C104.543 98.4924 104.758 98.3428 105.021 98.2386C105.286 98.1326 105.593 98.0795 105.942 98.0795C106.184 98.0795 106.416 98.108 106.638 98.1648C106.861 98.2216 107.059 98.3097 107.232 98.429C107.406 98.5483 107.543 98.7017 107.643 98.8892C107.744 99.0748 107.794 99.2973 107.794 99.5568V102.5H106.646V101.895H106.612C106.542 102.031 106.448 102.152 106.331 102.256C106.214 102.358 106.072 102.438 105.908 102.497C105.743 102.554 105.553 102.582 105.337 102.582ZM105.683 101.747C105.861 101.747 106.018 101.712 106.155 101.642C106.291 101.57 106.398 101.473 106.476 101.352C106.554 101.231 106.592 101.094 106.592 100.94V100.477C106.554 100.502 106.502 100.525 106.436 100.545C106.372 100.564 106.299 100.582 106.217 100.599C106.136 100.615 106.054 100.629 105.973 100.642C105.892 100.653 105.818 100.664 105.751 100.673C105.609 100.694 105.485 100.727 105.379 100.773C105.273 100.818 105.191 100.88 105.132 100.957C105.073 101.033 105.044 101.128 105.044 101.241C105.044 101.406 105.104 101.532 105.223 101.619C105.344 101.705 105.498 101.747 105.683 101.747ZM112.364 99.3807L111.256 99.4489C111.237 99.3542 111.196 99.2689 111.134 99.1932C111.071 99.1155 110.989 99.054 110.886 99.0085C110.786 98.9612 110.666 98.9375 110.526 98.9375C110.338 98.9375 110.18 98.9773 110.051 99.0568C109.922 99.1345 109.858 99.2386 109.858 99.3693C109.858 99.4735 109.9 99.5616 109.983 99.6335C110.066 99.7055 110.209 99.7633 110.412 99.8068L111.202 99.9659C111.626 100.053 111.942 100.193 112.151 100.386C112.359 100.58 112.463 100.833 112.463 101.148C112.463 101.434 112.379 101.685 112.21 101.901C112.044 102.116 111.814 102.285 111.523 102.406C111.233 102.526 110.899 102.585 110.52 102.585C109.942 102.585 109.482 102.465 109.139 102.224C108.798 101.982 108.598 101.652 108.54 101.236L109.73 101.173C109.766 101.349 109.853 101.484 109.991 101.577C110.13 101.668 110.307 101.713 110.523 101.713C110.735 101.713 110.905 101.672 111.034 101.591C111.165 101.508 111.231 101.401 111.233 101.27C111.231 101.16 111.185 101.07 111.094 101C111.003 100.928 110.863 100.873 110.673 100.835L109.918 100.685C109.491 100.599 109.174 100.452 108.966 100.241C108.759 100.031 108.656 99.7633 108.656 99.4375C108.656 99.1572 108.732 98.9157 108.884 98.7131C109.037 98.5104 109.252 98.3542 109.528 98.2443C109.807 98.1345 110.133 98.0795 110.506 98.0795C111.057 98.0795 111.491 98.196 111.807 98.429C112.125 98.6619 112.311 98.9792 112.364 99.3807ZM114.322 101.244L114.325 99.7926H114.501L115.898 98.1364H117.288L115.41 100.33H115.123L114.322 101.244ZM113.225 102.5V96.6818H114.435V102.5H113.225ZM115.952 102.5L114.668 100.599L115.475 99.7443L117.37 102.5H115.952ZM55.3864 112.591C54.9773 112.591 54.625 112.494 54.3295 112.301C54.0341 112.108 53.8068 111.842 53.6477 111.503C53.4886 111.164 53.4091 110.777 53.4091 110.341C53.4091 109.898 53.4905 109.507 53.6534 109.168C53.8182 108.827 54.0473 108.561 54.3409 108.369C54.6364 108.176 54.9811 108.08 55.375 108.08C55.6818 108.08 55.9583 108.136 56.2045 108.25C56.4508 108.364 56.6525 108.523 56.8097 108.727C56.9669 108.932 57.0644 109.17 57.1023 109.443H56.4318C56.3807 109.244 56.267 109.068 56.0909 108.915C55.9167 108.759 55.6818 108.682 55.3864 108.682C55.125 108.682 54.8958 108.75 54.6989 108.886C54.5038 109.021 54.3513 109.211 54.2415 109.457C54.1335 109.702 54.0795 109.989 54.0795 110.318C54.0795 110.655 54.1326 110.949 54.2386 111.199C54.3466 111.449 54.4981 111.643 54.6932 111.781C54.8902 111.92 55.1212 111.989 55.3864 111.989C55.5606 111.989 55.7188 111.958 55.8608 111.898C56.0028 111.837 56.1231 111.75 56.2216 111.636C56.3201 111.523 56.3902 111.386 56.4318 111.227H57.1023C57.0644 111.485 56.9706 111.717 56.821 111.923C56.6733 112.128 56.4773 112.291 56.233 112.412C55.9905 112.531 55.7083 112.591 55.3864 112.591ZM59.8551 112.591C59.4612 112.591 59.1155 112.497 58.8182 112.31C58.5227 112.122 58.2917 111.86 58.125 111.523C57.9602 111.186 57.8778 110.792 57.8778 110.341C57.8778 109.886 57.9602 109.49 58.125 109.151C58.2917 108.812 58.5227 108.548 58.8182 108.361C59.1155 108.173 59.4612 108.08 59.8551 108.08C60.2491 108.08 60.5938 108.173 60.8892 108.361C61.1866 108.548 61.4176 108.812 61.5824 109.151C61.7491 109.49 61.8324 109.886 61.8324 110.341C61.8324 110.792 61.7491 111.186 61.5824 111.523C61.4176 111.86 61.1866 112.122 60.8892 112.31C60.5938 112.497 60.2491 112.591 59.8551 112.591ZM59.8551 111.989C60.1544 111.989 60.4006 111.912 60.5938 111.759C60.7869 111.605 60.9299 111.403 61.0227 111.153C61.1155 110.903 61.1619 110.633 61.1619 110.341C61.1619 110.049 61.1155 109.777 61.0227 109.526C60.9299 109.274 60.7869 109.07 60.5938 108.915C60.4006 108.759 60.1544 108.682 59.8551 108.682C59.5559 108.682 59.3097 108.759 59.1165 108.915C58.9233 109.07 58.7803 109.274 58.6875 109.526C58.5947 109.777 58.5483 110.049 58.5483 110.341C58.5483 110.633 58.5947 110.903 58.6875 111.153C58.7803 111.403 58.9233 111.605 59.1165 111.759C59.3097 111.912 59.5559 111.989 59.8551 111.989ZM62.8558 112.5V108.136H63.5036V108.818H63.5604C63.6513 108.585 63.7981 108.404 64.0007 108.276C64.2034 108.145 64.4467 108.08 64.7308 108.08C65.0187 108.08 65.2583 108.145 65.4496 108.276C65.6428 108.404 65.7933 108.585 65.9013 108.818H65.9467C66.0585 108.593 66.2261 108.414 66.4496 108.281C66.6731 108.147 66.9411 108.08 67.2536 108.08C67.6437 108.08 67.9628 108.202 68.2109 108.446C68.459 108.688 68.5831 109.066 68.5831 109.58V112.5H67.9126V109.58C67.9126 109.258 67.8246 109.027 67.6484 108.889C67.4723 108.751 67.2649 108.682 67.0263 108.682C66.7195 108.682 66.4818 108.775 66.3132 108.96C66.1446 109.144 66.0604 109.377 66.0604 109.659V112.5H65.3786V109.511C65.3786 109.263 65.2981 109.063 65.1371 108.912C64.9761 108.759 64.7687 108.682 64.5149 108.682C64.3407 108.682 64.1778 108.728 64.0263 108.821C63.8767 108.914 63.7554 109.043 63.6626 109.207C63.5717 109.37 63.5263 109.559 63.5263 109.773V112.5H62.8558ZM69.8089 114.136V108.136H70.4567V108.83H70.5362C70.5855 108.754 70.6536 108.657 70.7408 108.54C70.8298 108.42 70.9567 108.314 71.1214 108.222C71.2881 108.127 71.5135 108.08 71.7976 108.08C72.165 108.08 72.4889 108.171 72.7692 108.355C73.0495 108.539 73.2682 108.799 73.4254 109.136C73.5826 109.473 73.6612 109.871 73.6612 110.33C73.6612 110.792 73.5826 111.192 73.4254 111.531C73.2682 111.868 73.0504 112.13 72.772 112.315C72.4936 112.499 72.1726 112.591 71.8089 112.591C71.5286 112.591 71.3042 112.545 71.1357 112.452C70.9671 112.357 70.8374 112.25 70.7464 112.131C70.6555 112.009 70.5855 111.909 70.5362 111.83H70.4794V114.136H69.8089ZM70.468 110.318C70.468 110.648 70.5163 110.938 70.6129 111.19C70.7095 111.44 70.8506 111.636 71.0362 111.778C71.2218 111.919 71.4491 111.989 71.718 111.989C71.9983 111.989 72.2322 111.915 72.4197 111.767C72.6091 111.617 72.7512 111.417 72.8459 111.165C72.9425 110.911 72.9908 110.629 72.9908 110.318C72.9908 110.011 72.9434 109.735 72.8487 109.489C72.7559 109.241 72.6148 109.045 72.4254 108.901C72.2379 108.755 72.0021 108.682 71.718 108.682C71.4453 108.682 71.2161 108.751 71.0305 108.889C70.8449 109.026 70.7048 109.217 70.6101 109.463C70.5154 109.707 70.468 109.992 70.468 110.318ZM75.3544 106.682V112.5H74.6839V106.682H75.3544ZM78.4119 112.591C77.9915 112.591 77.6288 112.498 77.3239 112.312C77.0208 112.125 76.7869 111.864 76.6222 111.528C76.4593 111.191 76.3778 110.799 76.3778 110.352C76.3778 109.905 76.4593 109.511 76.6222 109.17C76.7869 108.828 77.0161 108.561 77.3097 108.369C77.6051 108.176 77.9498 108.08 78.3438 108.08C78.571 108.08 78.7955 108.117 79.017 108.193C79.2386 108.269 79.4403 108.392 79.6222 108.562C79.804 108.731 79.9489 108.955 80.0568 109.233C80.1648 109.511 80.2188 109.854 80.2188 110.261V110.545H76.8551V109.966H79.5369C79.5369 109.72 79.4877 109.5 79.3892 109.307C79.2926 109.114 79.1544 108.961 78.9744 108.849C78.7964 108.738 78.5862 108.682 78.3438 108.682C78.0767 108.682 77.8456 108.748 77.6506 108.881C77.4574 109.011 77.3087 109.182 77.2045 109.392C77.1004 109.602 77.0483 109.828 77.0483 110.068V110.455C77.0483 110.784 77.1051 111.063 77.2188 111.293C77.3343 111.52 77.4943 111.693 77.6989 111.812C77.9034 111.93 78.1411 111.989 78.4119 111.989C78.5881 111.989 78.7472 111.964 78.8892 111.915C79.0331 111.864 79.1572 111.788 79.2614 111.688C79.3655 111.585 79.446 111.458 79.5028 111.307L80.1506 111.489C80.0824 111.708 79.9678 111.902 79.8068 112.068C79.6458 112.233 79.447 112.362 79.2102 112.455C78.9735 112.545 78.7074 112.591 78.4119 112.591ZM83.1364 108.136V108.705H80.875V108.136H83.1364ZM81.5341 107.091H82.2045V111.25C82.2045 111.439 82.232 111.581 82.2869 111.676C82.3438 111.769 82.4157 111.831 82.5028 111.864C82.5919 111.894 82.6856 111.909 82.7841 111.909C82.858 111.909 82.9186 111.905 82.9659 111.898C83.0133 111.888 83.0511 111.881 83.0795 111.875L83.2159 112.477C83.1705 112.494 83.107 112.511 83.0256 112.528C82.9441 112.547 82.8409 112.557 82.7159 112.557C82.5265 112.557 82.3409 112.516 82.1591 112.435C81.9792 112.353 81.8295 112.229 81.7102 112.062C81.5928 111.896 81.5341 111.686 81.5341 111.432V107.091ZM85.9276 112.591C85.5071 112.591 85.1444 112.498 84.8395 112.312C84.5365 112.125 84.3026 111.864 84.1378 111.528C83.9749 111.191 83.8935 110.799 83.8935 110.352C83.8935 109.905 83.9749 109.511 84.1378 109.17C84.3026 108.828 84.5317 108.561 84.8253 108.369C85.1207 108.176 85.4654 108.08 85.8594 108.08C86.0866 108.08 86.3111 108.117 86.5327 108.193C86.7543 108.269 86.956 108.392 87.1378 108.562C87.3196 108.731 87.4645 108.955 87.5724 109.233C87.6804 109.511 87.7344 109.854 87.7344 110.261V110.545H84.3707V109.966H87.0526C87.0526 109.72 87.0033 109.5 86.9048 109.307C86.8082 109.114 86.67 108.961 86.4901 108.849C86.312 108.738 86.1018 108.682 85.8594 108.682C85.5923 108.682 85.3613 108.748 85.1662 108.881C84.973 109.011 84.8243 109.182 84.7202 109.392C84.616 109.602 84.5639 109.828 84.5639 110.068V110.455C84.5639 110.784 84.6207 111.063 84.7344 111.293C84.8499 111.52 85.0099 111.693 85.2145 111.812C85.419 111.93 85.6567 111.989 85.9276 111.989C86.1037 111.989 86.2628 111.964 86.4048 111.915C86.5488 111.864 86.6728 111.788 86.777 111.688C86.8812 111.585 86.9616 111.458 87.0185 111.307L87.6662 111.489C87.598 111.708 87.4834 111.902 87.3224 112.068C87.1615 112.233 86.9626 112.362 86.7259 112.455C86.4891 112.545 86.223 112.591 85.9276 112.591ZM90.402 112.591C90.0384 112.591 89.7173 112.499 89.4389 112.315C89.1605 112.13 88.9427 111.868 88.7855 111.531C88.6283 111.192 88.5497 110.792 88.5497 110.33C88.5497 109.871 88.6283 109.473 88.7855 109.136C88.9427 108.799 89.1615 108.539 89.4418 108.355C89.7221 108.171 90.0459 108.08 90.4134 108.08C90.6974 108.08 90.9219 108.127 91.0866 108.222C91.2533 108.314 91.3802 108.42 91.4673 108.54C91.5563 108.657 91.6255 108.754 91.6747 108.83H91.7315V106.682H92.402V112.5H91.7543V111.83H91.6747C91.6255 111.909 91.5554 112.009 91.4645 112.131C91.3736 112.25 91.2438 112.357 91.0753 112.452C90.9067 112.545 90.6823 112.591 90.402 112.591ZM90.4929 111.989C90.7618 111.989 90.9891 111.919 91.1747 111.778C91.3603 111.636 91.5014 111.44 91.598 111.19C91.6946 110.938 91.7429 110.648 91.7429 110.318C91.7429 109.992 91.6955 109.707 91.6009 109.463C91.5062 109.217 91.366 109.026 91.1804 108.889C90.9948 108.751 90.7656 108.682 90.4929 108.682C90.2088 108.682 89.9721 108.755 89.7827 108.901C89.5952 109.045 89.4541 109.241 89.3594 109.489C89.2666 109.735 89.2202 110.011 89.2202 110.318C89.2202 110.629 89.2675 110.911 89.3622 111.165C89.4588 111.417 89.6009 111.617 89.7884 111.767C89.9777 111.915 90.2126 111.989 90.4929 111.989Z" fill="black"/>
<defs>
<filter id="filter0_d_14_334" x="0" y="0" width="172" height="172" filterUnits="userSpaceOnUse" color-interpolation-filters="sRGB">
<feFlood flood-opacity="0" result="BackgroundImageFix"/>
<feColorMatrix in="SourceAlpha" type="matrix" values="0 0 0 0 0 0 0 0 0 0 0 0 0 0 0 0 0 0 127 0" result="hardAlpha"/>
<feOffset/>
<feGaussianBlur stdDeviation="3.5"/>
<feComposite in2="hardAlpha" operator="out"/>
<feColorMatrix type="matrix" values="0 0 0 0 0 0 0 0 0 0 0 0 0 0 0 0 0 0 0.25 0"/>
<feBlend mode="normal" in2="BackgroundImageFix" result="effect1_dropShadow_14_334"/>
<feBlend mode="normal" in="SourceGraphic" in2="effect1_dropShadow_14_334" result="shape"/>
</filter>
<filter id="filter1_d_14_334" x="15.3701" y="0.358643" width="156.63" height="171.641" filterUnits="userSpaceOnUse" color-interpolation-filters="sRGB">
<feFlood flood-opacity="0" result="BackgroundImageFix"/>
<feColorMatrix in="SourceAlpha" type="matrix" values="0 0 0 0 0 0 0 0 0 0 0 0 0 0 0 0 0 0 127 0" result="hardAlpha"/>
<feOffset/>
<feGaussianBlur stdDeviation="3.5"/>
<feComposite in2="hardAlpha" operator="out"/>
<feColorMatrix type="matrix" values="0 0 0 0 0 0 0 0 0 0 0 0 0 0 0 0 0 0 0.25 0"/>
<feBlend mode="normal" in2="BackgroundImageFix" result="effect1_dropShadow_14_334"/>
<feBlend mode="normal" in="SourceGraphic" in2="effect1_dropShadow_14_334" result="shape"/>
</filter>
</defs>
</svg>
